solid 
   facet normal 0.000000e+00 1.000000e+00 0.000000e+00
      outer loop
         vertex 3.000000e+00 3.050000e+01 3.000000e+00
         vertex 3.200000e+00 3.050000e+01 4.500000e+00
         vertex 5.000000e+00 3.050000e+01 3.000000e+00
      endloop
   endfacet
   facet normal 0.000000e+00 1.000000e+00 0.000000e+00
      outer loop
         vertex 3.200000e+00 3.050000e+01 4.500000e+00
         vertex 4.800000e+00 3.050000e+01 4.500000e+00
         vertex 5.000000e+00 3.050000e+01 3.000000e+00
      endloop
   endfacet
   facet normal -0.000000e+00 1.000000e+00 0.000000e+00
      outer loop
         vertex 5.000000e+00 3.050000e+01 3.000000e+00
         vertex 4.800000e+00 3.050000e+01 4.500000e+00
         vertex 5.000000e+00 3.050000e+01 1.650000e+01
      endloop
   endfacet
   facet normal -0.000000e+00 1.000000e+00 0.000000e+00
      outer loop
         vertex 4.800000e+00 3.050000e+01 4.500000e+00
         vertex 4.800000e+00 3.050000e+01 6.500000e+00
         vertex 5.000000e+00 3.050000e+01 1.650000e+01
      endloop
   endfacet
   facet normal 0.000000e+00 1.000000e+00 -0.000000e+00
      outer loop
         vertex 5.000000e+00 3.050000e+01 1.650000e+01
         vertex 4.800000e+00 3.050000e+01 1.550000e+01
         vertex 3.000000e+00 3.050000e+01 1.650000e+01
      endloop
   endfacet
   facet normal 0.000000e+00 1.000000e+00 -0.000000e+00
      outer loop
         vertex 4.800000e+00 3.050000e+01 1.550000e+01
         vertex 3.200000e+00 3.050000e+01 1.550000e+01
         vertex 3.000000e+00 3.050000e+01 1.650000e+01
      endloop
   endfacet
   facet normal 0.000000e+00 1.000000e+00 0.000000e+00
      outer loop
         vertex 3.000000e+00 3.050000e+01 1.650000e+01
         vertex 3.200000e+00 3.050000e+01 1.550000e+01
         vertex 3.000000e+00 3.050000e+01 3.000000e+00
      endloop
   endfacet
   facet normal 0.000000e+00 1.000000e+00 -0.000000e+00
      outer loop
         vertex 3.200000e+00 3.050000e+01 1.550000e+01
         vertex 3.200000e+00 3.050000e+01 1.350000e+01
         vertex 3.000000e+00 3.050000e+01 3.000000e+00
      endloop
   endfacet
   facet normal 0.000000e+00 1.000000e+00 0.000000e+00
      outer loop
         vertex 3.000000e+00 3.050000e+01 3.000000e+00
         vertex 3.200000e+00 3.050000e+01 6.500000e+00
         vertex 3.200000e+00 3.050000e+01 4.500000e+00
      endloop
   endfacet
   facet normal 0.000000e+00 1.000000e+00 0.000000e+00
      outer loop
         vertex 3.000000e+00 3.050000e+01 3.000000e+00
         vertex 3.200000e+00 3.050000e+01 1.350000e+01
         vertex 3.200000e+00 3.050000e+01 6.500000e+00
      endloop
   endfacet
   facet normal 0.000000e+00 1.000000e+00 0.000000e+00
      outer loop
         vertex 3.200000e+00 3.050000e+01 1.350000e+01
         vertex 4.800000e+00 3.050000e+01 1.350000e+01
         vertex 3.200000e+00 3.050000e+01 6.500000e+00
      endloop
   endfacet
   facet normal 0.000000e+00 1.000000e+00 0.000000e+00
      outer loop
         vertex 3.200000e+00 3.050000e+01 6.500000e+00
         vertex 4.800000e+00 3.050000e+01 1.350000e+01
         vertex 4.800000e+00 3.050000e+01 6.500000e+00
      endloop
   endfacet
   facet normal 0.000000e+00 1.000000e+00 0.000000e+00
      outer loop
         vertex 4.800000e+00 3.050000e+01 1.550000e+01
         vertex 5.000000e+00 3.050000e+01 1.650000e+01
         vertex 4.800000e+00 3.050000e+01 1.350000e+01
      endloop
   endfacet
   facet normal 0.000000e+00 1.000000e+00 0.000000e+00
      outer loop
         vertex 4.800000e+00 3.050000e+01 1.350000e+01
         vertex 5.000000e+00 3.050000e+01 1.650000e+01
         vertex 4.800000e+00 3.050000e+01 6.500000e+00
      endloop
   endfacet
   facet normal 0.000000e+00 -1.000000e+00 -0.000000e+00
      outer loop
         vertex 5.000000e+00 2.550000e+01 3.000000e+00
         vertex 4.800000e+00 2.550000e+01 4.500000e+00
         vertex 3.000000e+00 2.550000e+01 3.000000e+00
      endloop
   endfacet
   facet normal 0.000000e+00 -1.000000e+00 -0.000000e+00
      outer loop
         vertex 4.800000e+00 2.550000e+01 4.500000e+00
         vertex 3.200000e+00 2.550000e+01 4.500000e+00
         vertex 3.000000e+00 2.550000e+01 3.000000e+00
      endloop
   endfacet
   facet normal -0.000000e+00 -1.000000e+00 0.000000e+00
      outer loop
         vertex 3.000000e+00 2.550000e+01 3.000000e+00
         vertex 3.200000e+00 2.550000e+01 4.500000e+00
         vertex 3.000000e+00 2.550000e+01 1.650000e+01
      endloop
   endfacet
   facet normal -0.000000e+00 -1.000000e+00 -0.000000e+00
      outer loop
         vertex 3.200000e+00 2.550000e+01 4.500000e+00
         vertex 3.200000e+00 2.550000e+01 6.500000e+00
         vertex 3.000000e+00 2.550000e+01 1.650000e+01
      endloop
   endfacet
   facet normal 0.000000e+00 -1.000000e+00 0.000000e+00
      outer loop
         vertex 3.000000e+00 2.550000e+01 1.650000e+01
         vertex 3.200000e+00 2.550000e+01 1.550000e+01
         vertex 5.000000e+00 2.550000e+01 1.650000e+01
      endloop
   endfacet
   facet normal 0.000000e+00 -1.000000e+00 0.000000e+00
      outer loop
         vertex 3.200000e+00 2.550000e+01 1.550000e+01
         vertex 4.800000e+00 2.550000e+01 1.550000e+01
         vertex 5.000000e+00 2.550000e+01 1.650000e+01
      endloop
   endfacet
   facet normal 0.000000e+00 -1.000000e+00 0.000000e+00
      outer loop
         vertex 5.000000e+00 2.550000e+01 1.650000e+01
         vertex 4.800000e+00 2.550000e+01 1.550000e+01
         vertex 5.000000e+00 2.550000e+01 3.000000e+00
      endloop
   endfacet
   facet normal 0.000000e+00 -1.000000e+00 0.000000e+00
      outer loop
         vertex 4.800000e+00 2.550000e+01 1.550000e+01
         vertex 4.800000e+00 2.550000e+01 1.350000e+01
         vertex 5.000000e+00 2.550000e+01 3.000000e+00
      endloop
   endfacet
   facet normal 0.000000e+00 -1.000000e+00 0.000000e+00
      outer loop
         vertex 5.000000e+00 2.550000e+01 3.000000e+00
         vertex 4.800000e+00 2.550000e+01 6.500000e+00
         vertex 4.800000e+00 2.550000e+01 4.500000e+00
      endloop
   endfacet
   facet normal 0.000000e+00 -1.000000e+00 0.000000e+00
      outer loop
         vertex 5.000000e+00 2.550000e+01 3.000000e+00
         vertex 4.800000e+00 2.550000e+01 1.350000e+01
         vertex 4.800000e+00 2.550000e+01 6.500000e+00
      endloop
   endfacet
   facet normal 0.000000e+00 -1.000000e+00 0.000000e+00
      outer loop
         vertex 4.800000e+00 2.550000e+01 1.350000e+01
         vertex 3.200000e+00 2.550000e+01 1.350000e+01
         vertex 4.800000e+00 2.550000e+01 6.500000e+00
      endloop
   endfacet
   facet normal 0.000000e+00 -1.000000e+00 0.000000e+00
      outer loop
         vertex 4.800000e+00 2.550000e+01 6.500000e+00
         vertex 3.200000e+00 2.550000e+01 1.350000e+01
         vertex 3.200000e+00 2.550000e+01 6.500000e+00
      endloop
   endfacet
   facet normal 0.000000e+00 -1.000000e+00 0.000000e+00
      outer loop
         vertex 3.200000e+00 2.550000e+01 1.550000e+01
         vertex 3.000000e+00 2.550000e+01 1.650000e+01
         vertex 3.200000e+00 2.550000e+01 1.350000e+01
      endloop
   endfacet
   facet normal 0.000000e+00 -1.000000e+00 0.000000e+00
      outer loop
         vertex 3.200000e+00 2.550000e+01 1.350000e+01
         vertex 3.000000e+00 2.550000e+01 1.650000e+01
         vertex 3.200000e+00 2.550000e+01 6.500000e+00
      endloop
   endfacet
   facet normal 0.000000e+00 1.000000e+00 0.000000e+00
      outer loop
         vertex 3.000000e+00 2.250000e+01 3.000000e+00
         vertex 3.200000e+00 2.250000e+01 4.500000e+00
         vertex 5.000000e+00 2.250000e+01 3.000000e+00
      endloop
   endfacet
   facet normal 0.000000e+00 1.000000e+00 0.000000e+00
      outer loop
         vertex 3.200000e+00 2.250000e+01 4.500000e+00
         vertex 4.800000e+00 2.250000e+01 4.500000e+00
         vertex 5.000000e+00 2.250000e+01 3.000000e+00
      endloop
   endfacet
   facet normal -0.000000e+00 1.000000e+00 0.000000e+00
      outer loop
         vertex 5.000000e+00 2.250000e+01 3.000000e+00
         vertex 4.800000e+00 2.250000e+01 4.500000e+00
         vertex 5.000000e+00 2.250000e+01 1.650000e+01
      endloop
   endfacet
   facet normal -0.000000e+00 1.000000e+00 0.000000e+00
      outer loop
         vertex 4.800000e+00 2.250000e+01 4.500000e+00
         vertex 4.800000e+00 2.250000e+01 6.500000e+00
         vertex 5.000000e+00 2.250000e+01 1.650000e+01
      endloop
   endfacet
   facet normal 0.000000e+00 1.000000e+00 -0.000000e+00
      outer loop
         vertex 5.000000e+00 2.250000e+01 1.650000e+01
         vertex 4.800000e+00 2.250000e+01 1.550000e+01
         vertex 3.000000e+00 2.250000e+01 1.650000e+01
      endloop
   endfacet
   facet normal 0.000000e+00 1.000000e+00 -0.000000e+00
      outer loop
         vertex 4.800000e+00 2.250000e+01 1.550000e+01
         vertex 3.200000e+00 2.250000e+01 1.550000e+01
         vertex 3.000000e+00 2.250000e+01 1.650000e+01
      endloop
   endfacet
   facet normal 0.000000e+00 1.000000e+00 0.000000e+00
      outer loop
         vertex 3.000000e+00 2.250000e+01 1.650000e+01
         vertex 3.200000e+00 2.250000e+01 1.550000e+01
         vertex 3.000000e+00 2.250000e+01 3.000000e+00
      endloop
   endfacet
   facet normal 0.000000e+00 1.000000e+00 -0.000000e+00
      outer loop
         vertex 3.200000e+00 2.250000e+01 1.550000e+01
         vertex 3.200000e+00 2.250000e+01 1.350000e+01
         vertex 3.000000e+00 2.250000e+01 3.000000e+00
      endloop
   endfacet
   facet normal 0.000000e+00 1.000000e+00 0.000000e+00
      outer loop
         vertex 3.000000e+00 2.250000e+01 3.000000e+00
         vertex 3.200000e+00 2.250000e+01 6.500000e+00
         vertex 3.200000e+00 2.250000e+01 4.500000e+00
      endloop
   endfacet
   facet normal 0.000000e+00 1.000000e+00 0.000000e+00
      outer loop
         vertex 3.000000e+00 2.250000e+01 3.000000e+00
         vertex 3.200000e+00 2.250000e+01 1.350000e+01
         vertex 3.200000e+00 2.250000e+01 6.500000e+00
      endloop
   endfacet
   facet normal 0.000000e+00 1.000000e+00 0.000000e+00
      outer loop
         vertex 3.200000e+00 2.250000e+01 1.350000e+01
         vertex 4.800000e+00 2.250000e+01 1.350000e+01
         vertex 3.200000e+00 2.250000e+01 6.500000e+00
      endloop
   endfacet
   facet normal 0.000000e+00 1.000000e+00 0.000000e+00
      outer loop
         vertex 3.200000e+00 2.250000e+01 6.500000e+00
         vertex 4.800000e+00 2.250000e+01 1.350000e+01
         vertex 4.800000e+00 2.250000e+01 6.500000e+00
      endloop
   endfacet
   facet normal 0.000000e+00 1.000000e+00 0.000000e+00
      outer loop
         vertex 4.800000e+00 2.250000e+01 1.550000e+01
         vertex 5.000000e+00 2.250000e+01 1.650000e+01
         vertex 4.800000e+00 2.250000e+01 1.350000e+01
      endloop
   endfacet
   facet normal 0.000000e+00 1.000000e+00 0.000000e+00
      outer loop
         vertex 4.800000e+00 2.250000e+01 1.350000e+01
         vertex 5.000000e+00 2.250000e+01 1.650000e+01
         vertex 4.800000e+00 2.250000e+01 6.500000e+00
      endloop
   endfacet
   facet normal 0.000000e+00 -1.000000e+00 -0.000000e+00
      outer loop
         vertex 5.000000e+00 1.750000e+01 3.000000e+00
         vertex 4.800000e+00 1.750000e+01 4.500000e+00
         vertex 3.000000e+00 1.750000e+01 3.000000e+00
      endloop
   endfacet
   facet normal 0.000000e+00 -1.000000e+00 -0.000000e+00
      outer loop
         vertex 4.800000e+00 1.750000e+01 4.500000e+00
         vertex 3.200000e+00 1.750000e+01 4.500000e+00
         vertex 3.000000e+00 1.750000e+01 3.000000e+00
      endloop
   endfacet
   facet normal -0.000000e+00 -1.000000e+00 0.000000e+00
      outer loop
         vertex 3.000000e+00 1.750000e+01 3.000000e+00
         vertex 3.200000e+00 1.750000e+01 4.500000e+00
         vertex 3.000000e+00 1.750000e+01 1.650000e+01
      endloop
   endfacet
   facet normal -0.000000e+00 -1.000000e+00 -0.000000e+00
      outer loop
         vertex 3.200000e+00 1.750000e+01 4.500000e+00
         vertex 3.200000e+00 1.750000e+01 6.500000e+00
         vertex 3.000000e+00 1.750000e+01 1.650000e+01
      endloop
   endfacet
   facet normal 0.000000e+00 -1.000000e+00 0.000000e+00
      outer loop
         vertex 3.000000e+00 1.750000e+01 1.650000e+01
         vertex 3.200000e+00 1.750000e+01 1.550000e+01
         vertex 5.000000e+00 1.750000e+01 1.650000e+01
      endloop
   endfacet
   facet normal 0.000000e+00 -1.000000e+00 0.000000e+00
      outer loop
         vertex 3.200000e+00 1.750000e+01 1.550000e+01
         vertex 4.800000e+00 1.750000e+01 1.550000e+01
         vertex 5.000000e+00 1.750000e+01 1.650000e+01
      endloop
   endfacet
   facet normal 0.000000e+00 -1.000000e+00 0.000000e+00
      outer loop
         vertex 5.000000e+00 1.750000e+01 1.650000e+01
         vertex 4.800000e+00 1.750000e+01 1.550000e+01
         vertex 5.000000e+00 1.750000e+01 3.000000e+00
      endloop
   endfacet
   facet normal 0.000000e+00 -1.000000e+00 0.000000e+00
      outer loop
         vertex 4.800000e+00 1.750000e+01 1.550000e+01
         vertex 4.800000e+00 1.750000e+01 1.350000e+01
         vertex 5.000000e+00 1.750000e+01 3.000000e+00
      endloop
   endfacet
   facet normal 0.000000e+00 -1.000000e+00 0.000000e+00
      outer loop
         vertex 5.000000e+00 1.750000e+01 3.000000e+00
         vertex 4.800000e+00 1.750000e+01 6.500000e+00
         vertex 4.800000e+00 1.750000e+01 4.500000e+00
      endloop
   endfacet
   facet normal 0.000000e+00 -1.000000e+00 0.000000e+00
      outer loop
         vertex 5.000000e+00 1.750000e+01 3.000000e+00
         vertex 4.800000e+00 1.750000e+01 1.350000e+01
         vertex 4.800000e+00 1.750000e+01 6.500000e+00
      endloop
   endfacet
   facet normal 0.000000e+00 -1.000000e+00 0.000000e+00
      outer loop
         vertex 4.800000e+00 1.750000e+01 1.350000e+01
         vertex 3.200000e+00 1.750000e+01 1.350000e+01
         vertex 4.800000e+00 1.750000e+01 6.500000e+00
      endloop
   endfacet
   facet normal 0.000000e+00 -1.000000e+00 0.000000e+00
      outer loop
         vertex 4.800000e+00 1.750000e+01 6.500000e+00
         vertex 3.200000e+00 1.750000e+01 1.350000e+01
         vertex 3.200000e+00 1.750000e+01 6.500000e+00
      endloop
   endfacet
   facet normal 0.000000e+00 -1.000000e+00 0.000000e+00
      outer loop
         vertex 3.200000e+00 1.750000e+01 1.550000e+01
         vertex 3.000000e+00 1.750000e+01 1.650000e+01
         vertex 3.200000e+00 1.750000e+01 1.350000e+01
      endloop
   endfacet
   facet normal 0.000000e+00 -1.000000e+00 0.000000e+00
      outer loop
         vertex 3.200000e+00 1.750000e+01 1.350000e+01
         vertex 3.000000e+00 1.750000e+01 1.650000e+01
         vertex 3.200000e+00 1.750000e+01 6.500000e+00
      endloop
   endfacet
   facet normal 0.000000e+00 1.000000e+00 0.000000e+00
      outer loop
         vertex 3.000000e+00 1.450000e+01 3.000000e+00
         vertex 3.200000e+00 1.450000e+01 4.500000e+00
         vertex 5.000000e+00 1.450000e+01 3.000000e+00
      endloop
   endfacet
   facet normal 0.000000e+00 1.000000e+00 0.000000e+00
      outer loop
         vertex 3.200000e+00 1.450000e+01 4.500000e+00
         vertex 4.800000e+00 1.450000e+01 4.500000e+00
         vertex 5.000000e+00 1.450000e+01 3.000000e+00
      endloop
   endfacet
   facet normal -0.000000e+00 1.000000e+00 0.000000e+00
      outer loop
         vertex 5.000000e+00 1.450000e+01 3.000000e+00
         vertex 4.800000e+00 1.450000e+01 4.500000e+00
         vertex 5.000000e+00 1.450000e+01 1.650000e+01
      endloop
   endfacet
   facet normal -0.000000e+00 1.000000e+00 0.000000e+00
      outer loop
         vertex 4.800000e+00 1.450000e+01 4.500000e+00
         vertex 4.800000e+00 1.450000e+01 6.500000e+00
         vertex 5.000000e+00 1.450000e+01 1.650000e+01
      endloop
   endfacet
   facet normal 0.000000e+00 1.000000e+00 -0.000000e+00
      outer loop
         vertex 5.000000e+00 1.450000e+01 1.650000e+01
         vertex 4.800000e+00 1.450000e+01 1.550000e+01
         vertex 3.000000e+00 1.450000e+01 1.650000e+01
      endloop
   endfacet
   facet normal 0.000000e+00 1.000000e+00 -0.000000e+00
      outer loop
         vertex 4.800000e+00 1.450000e+01 1.550000e+01
         vertex 3.200000e+00 1.450000e+01 1.550000e+01
         vertex 3.000000e+00 1.450000e+01 1.650000e+01
      endloop
   endfacet
   facet normal 0.000000e+00 1.000000e+00 0.000000e+00
      outer loop
         vertex 3.000000e+00 1.450000e+01 1.650000e+01
         vertex 3.200000e+00 1.450000e+01 1.550000e+01
         vertex 3.000000e+00 1.450000e+01 3.000000e+00
      endloop
   endfacet
   facet normal 0.000000e+00 1.000000e+00 -0.000000e+00
      outer loop
         vertex 3.200000e+00 1.450000e+01 1.550000e+01
         vertex 3.200000e+00 1.450000e+01 1.350000e+01
         vertex 3.000000e+00 1.450000e+01 3.000000e+00
      endloop
   endfacet
   facet normal 0.000000e+00 1.000000e+00 0.000000e+00
      outer loop
         vertex 3.000000e+00 1.450000e+01 3.000000e+00
         vertex 3.200000e+00 1.450000e+01 6.500000e+00
         vertex 3.200000e+00 1.450000e+01 4.500000e+00
      endloop
   endfacet
   facet normal 0.000000e+00 1.000000e+00 0.000000e+00
      outer loop
         vertex 3.000000e+00 1.450000e+01 3.000000e+00
         vertex 3.200000e+00 1.450000e+01 1.350000e+01
         vertex 3.200000e+00 1.450000e+01 6.500000e+00
      endloop
   endfacet
   facet normal 0.000000e+00 1.000000e+00 0.000000e+00
      outer loop
         vertex 3.200000e+00 1.450000e+01 1.350000e+01
         vertex 4.800000e+00 1.450000e+01 1.350000e+01
         vertex 3.200000e+00 1.450000e+01 6.500000e+00
      endloop
   endfacet
   facet normal 0.000000e+00 1.000000e+00 0.000000e+00
      outer loop
         vertex 3.200000e+00 1.450000e+01 6.500000e+00
         vertex 4.800000e+00 1.450000e+01 1.350000e+01
         vertex 4.800000e+00 1.450000e+01 6.500000e+00
      endloop
   endfacet
   facet normal 0.000000e+00 1.000000e+00 0.000000e+00
      outer loop
         vertex 4.800000e+00 1.450000e+01 1.550000e+01
         vertex 5.000000e+00 1.450000e+01 1.650000e+01
         vertex 4.800000e+00 1.450000e+01 1.350000e+01
      endloop
   endfacet
   facet normal 0.000000e+00 1.000000e+00 0.000000e+00
      outer loop
         vertex 4.800000e+00 1.450000e+01 1.350000e+01
         vertex 5.000000e+00 1.450000e+01 1.650000e+01
         vertex 4.800000e+00 1.450000e+01 6.500000e+00
      endloop
   endfacet
   facet normal 0.000000e+00 -1.000000e+00 -0.000000e+00
      outer loop
         vertex 5.000000e+00 9.500000e+00 3.000000e+00
         vertex 4.800000e+00 9.500000e+00 4.500000e+00
         vertex 3.000000e+00 9.500000e+00 3.000000e+00
      endloop
   endfacet
   facet normal 0.000000e+00 -1.000000e+00 -0.000000e+00
      outer loop
         vertex 4.800000e+00 9.500000e+00 4.500000e+00
         vertex 3.200000e+00 9.500000e+00 4.500000e+00
         vertex 3.000000e+00 9.500000e+00 3.000000e+00
      endloop
   endfacet
   facet normal -0.000000e+00 -1.000000e+00 0.000000e+00
      outer loop
         vertex 3.000000e+00 9.500000e+00 3.000000e+00
         vertex 3.200000e+00 9.500000e+00 4.500000e+00
         vertex 3.000000e+00 9.500000e+00 1.650000e+01
      endloop
   endfacet
   facet normal -0.000000e+00 -1.000000e+00 -0.000000e+00
      outer loop
         vertex 3.200000e+00 9.500000e+00 4.500000e+00
         vertex 3.200000e+00 9.500000e+00 6.500000e+00
         vertex 3.000000e+00 9.500000e+00 1.650000e+01
      endloop
   endfacet
   facet normal 0.000000e+00 -1.000000e+00 0.000000e+00
      outer loop
         vertex 3.000000e+00 9.500000e+00 1.650000e+01
         vertex 3.200000e+00 9.500000e+00 1.550000e+01
         vertex 5.000000e+00 9.500000e+00 1.650000e+01
      endloop
   endfacet
   facet normal 0.000000e+00 -1.000000e+00 0.000000e+00
      outer loop
         vertex 3.200000e+00 9.500000e+00 1.550000e+01
         vertex 4.800000e+00 9.500000e+00 1.550000e+01
         vertex 5.000000e+00 9.500000e+00 1.650000e+01
      endloop
   endfacet
   facet normal 0.000000e+00 -1.000000e+00 0.000000e+00
      outer loop
         vertex 5.000000e+00 9.500000e+00 1.650000e+01
         vertex 4.800000e+00 9.500000e+00 1.550000e+01
         vertex 5.000000e+00 9.500000e+00 3.000000e+00
      endloop
   endfacet
   facet normal 0.000000e+00 -1.000000e+00 0.000000e+00
      outer loop
         vertex 4.800000e+00 9.500000e+00 1.550000e+01
         vertex 4.800000e+00 9.500000e+00 1.350000e+01
         vertex 5.000000e+00 9.500000e+00 3.000000e+00
      endloop
   endfacet
   facet normal 0.000000e+00 -1.000000e+00 0.000000e+00
      outer loop
         vertex 5.000000e+00 9.500000e+00 3.000000e+00
         vertex 4.800000e+00 9.500000e+00 6.500000e+00
         vertex 4.800000e+00 9.500000e+00 4.500000e+00
      endloop
   endfacet
   facet normal 0.000000e+00 -1.000000e+00 0.000000e+00
      outer loop
         vertex 5.000000e+00 9.500000e+00 3.000000e+00
         vertex 4.800000e+00 9.500000e+00 1.350000e+01
         vertex 4.800000e+00 9.500000e+00 6.500000e+00
      endloop
   endfacet
   facet normal 0.000000e+00 -1.000000e+00 0.000000e+00
      outer loop
         vertex 4.800000e+00 9.500000e+00 1.350000e+01
         vertex 3.200000e+00 9.500000e+00 1.350000e+01
         vertex 4.800000e+00 9.500000e+00 6.500000e+00
      endloop
   endfacet
   facet normal 0.000000e+00 -1.000000e+00 0.000000e+00
      outer loop
         vertex 4.800000e+00 9.500000e+00 6.500000e+00
         vertex 3.200000e+00 9.500000e+00 1.350000e+01
         vertex 3.200000e+00 9.500000e+00 6.500000e+00
      endloop
   endfacet
   facet normal 0.000000e+00 -1.000000e+00 0.000000e+00
      outer loop
         vertex 3.200000e+00 9.500000e+00 1.550000e+01
         vertex 3.000000e+00 9.500000e+00 1.650000e+01
         vertex 3.200000e+00 9.500000e+00 1.350000e+01
      endloop
   endfacet
   facet normal 0.000000e+00 -1.000000e+00 0.000000e+00
      outer loop
         vertex 3.200000e+00 9.500000e+00 1.350000e+01
         vertex 3.000000e+00 9.500000e+00 1.650000e+01
         vertex 3.200000e+00 9.500000e+00 6.500000e+00
      endloop
   endfacet
   facet normal 0.000000e+00 1.000000e+00 0.000000e+00
      outer loop
         vertex 3.000000e+00 6.500000e+00 3.000000e+00
         vertex 3.200000e+00 6.500000e+00 4.500000e+00
         vertex 5.000000e+00 6.500000e+00 3.000000e+00
      endloop
   endfacet
   facet normal 0.000000e+00 1.000000e+00 0.000000e+00
      outer loop
         vertex 3.200000e+00 6.500000e+00 4.500000e+00
         vertex 4.800000e+00 6.500000e+00 4.500000e+00
         vertex 5.000000e+00 6.500000e+00 3.000000e+00
      endloop
   endfacet
   facet normal -0.000000e+00 1.000000e+00 0.000000e+00
      outer loop
         vertex 5.000000e+00 6.500000e+00 3.000000e+00
         vertex 4.800000e+00 6.500000e+00 4.500000e+00
         vertex 5.000000e+00 6.500000e+00 1.650000e+01
      endloop
   endfacet
   facet normal -0.000000e+00 1.000000e+00 0.000000e+00
      outer loop
         vertex 4.800000e+00 6.500000e+00 4.500000e+00
         vertex 4.800000e+00 6.500000e+00 6.500000e+00
         vertex 5.000000e+00 6.500000e+00 1.650000e+01
      endloop
   endfacet
   facet normal 0.000000e+00 1.000000e+00 -0.000000e+00
      outer loop
         vertex 5.000000e+00 6.500000e+00 1.650000e+01
         vertex 4.800000e+00 6.500000e+00 1.550000e+01
         vertex 3.000000e+00 6.500000e+00 1.650000e+01
      endloop
   endfacet
   facet normal 0.000000e+00 1.000000e+00 -0.000000e+00
      outer loop
         vertex 4.800000e+00 6.500000e+00 1.550000e+01
         vertex 3.200000e+00 6.500000e+00 1.550000e+01
         vertex 3.000000e+00 6.500000e+00 1.650000e+01
      endloop
   endfacet
   facet normal 0.000000e+00 1.000000e+00 0.000000e+00
      outer loop
         vertex 3.000000e+00 6.500000e+00 1.650000e+01
         vertex 3.200000e+00 6.500000e+00 1.550000e+01
         vertex 3.000000e+00 6.500000e+00 3.000000e+00
      endloop
   endfacet
   facet normal 0.000000e+00 1.000000e+00 -0.000000e+00
      outer loop
         vertex 3.200000e+00 6.500000e+00 1.550000e+01
         vertex 3.200000e+00 6.500000e+00 1.350000e+01
         vertex 3.000000e+00 6.500000e+00 3.000000e+00
      endloop
   endfacet
   facet normal 0.000000e+00 1.000000e+00 0.000000e+00
      outer loop
         vertex 3.000000e+00 6.500000e+00 3.000000e+00
         vertex 3.200000e+00 6.500000e+00 6.500000e+00
         vertex 3.200000e+00 6.500000e+00 4.500000e+00
      endloop
   endfacet
   facet normal 0.000000e+00 1.000000e+00 0.000000e+00
      outer loop
         vertex 3.000000e+00 6.500000e+00 3.000000e+00
         vertex 3.200000e+00 6.500000e+00 1.350000e+01
         vertex 3.200000e+00 6.500000e+00 6.500000e+00
      endloop
   endfacet
   facet normal 0.000000e+00 1.000000e+00 0.000000e+00
      outer loop
         vertex 3.200000e+00 6.500000e+00 1.350000e+01
         vertex 4.800000e+00 6.500000e+00 1.350000e+01
         vertex 3.200000e+00 6.500000e+00 6.500000e+00
      endloop
   endfacet
   facet normal 0.000000e+00 1.000000e+00 0.000000e+00
      outer loop
         vertex 3.200000e+00 6.500000e+00 6.500000e+00
         vertex 4.800000e+00 6.500000e+00 1.350000e+01
         vertex 4.800000e+00 6.500000e+00 6.500000e+00
      endloop
   endfacet
   facet normal 0.000000e+00 1.000000e+00 0.000000e+00
      outer loop
         vertex 4.800000e+00 6.500000e+00 1.550000e+01
         vertex 5.000000e+00 6.500000e+00 1.650000e+01
         vertex 4.800000e+00 6.500000e+00 1.350000e+01
      endloop
   endfacet
   facet normal 0.000000e+00 1.000000e+00 0.000000e+00
      outer loop
         vertex 4.800000e+00 6.500000e+00 1.350000e+01
         vertex 5.000000e+00 6.500000e+00 1.650000e+01
         vertex 4.800000e+00 6.500000e+00 6.500000e+00
      endloop
   endfacet
   facet normal 0.000000e+00 -1.000000e+00 -0.000000e+00
      outer loop
         vertex 5.000000e+00 1.500000e+00 3.000000e+00
         vertex 4.800000e+00 1.500000e+00 4.500000e+00
         vertex 3.000000e+00 1.500000e+00 3.000000e+00
      endloop
   endfacet
   facet normal 0.000000e+00 -1.000000e+00 -0.000000e+00
      outer loop
         vertex 4.800000e+00 1.500000e+00 4.500000e+00
         vertex 3.200000e+00 1.500000e+00 4.500000e+00
         vertex 3.000000e+00 1.500000e+00 3.000000e+00
      endloop
   endfacet
   facet normal -0.000000e+00 -1.000000e+00 0.000000e+00
      outer loop
         vertex 3.000000e+00 1.500000e+00 3.000000e+00
         vertex 3.200000e+00 1.500000e+00 4.500000e+00
         vertex 3.000000e+00 1.500000e+00 1.650000e+01
      endloop
   endfacet
   facet normal -0.000000e+00 -1.000000e+00 -0.000000e+00
      outer loop
         vertex 3.200000e+00 1.500000e+00 4.500000e+00
         vertex 3.200000e+00 1.500000e+00 6.500000e+00
         vertex 3.000000e+00 1.500000e+00 1.650000e+01
      endloop
   endfacet
   facet normal 0.000000e+00 -1.000000e+00 0.000000e+00
      outer loop
         vertex 3.000000e+00 1.500000e+00 1.650000e+01
         vertex 3.200000e+00 1.500000e+00 1.550000e+01
         vertex 5.000000e+00 1.500000e+00 1.650000e+01
      endloop
   endfacet
   facet normal 0.000000e+00 -1.000000e+00 0.000000e+00
      outer loop
         vertex 3.200000e+00 1.500000e+00 1.550000e+01
         vertex 4.800000e+00 1.500000e+00 1.550000e+01
         vertex 5.000000e+00 1.500000e+00 1.650000e+01
      endloop
   endfacet
   facet normal 0.000000e+00 -1.000000e+00 0.000000e+00
      outer loop
         vertex 5.000000e+00 1.500000e+00 1.650000e+01
         vertex 4.800000e+00 1.500000e+00 1.550000e+01
         vertex 5.000000e+00 1.500000e+00 3.000000e+00
      endloop
   endfacet
   facet normal 0.000000e+00 -1.000000e+00 0.000000e+00
      outer loop
         vertex 4.800000e+00 1.500000e+00 1.550000e+01
         vertex 4.800000e+00 1.500000e+00 1.350000e+01
         vertex 5.000000e+00 1.500000e+00 3.000000e+00
      endloop
   endfacet
   facet normal 0.000000e+00 -1.000000e+00 0.000000e+00
      outer loop
         vertex 5.000000e+00 1.500000e+00 3.000000e+00
         vertex 4.800000e+00 1.500000e+00 6.500000e+00
         vertex 4.800000e+00 1.500000e+00 4.500000e+00
      endloop
   endfacet
   facet normal 0.000000e+00 -1.000000e+00 0.000000e+00
      outer loop
         vertex 5.000000e+00 1.500000e+00 3.000000e+00
         vertex 4.800000e+00 1.500000e+00 1.350000e+01
         vertex 4.800000e+00 1.500000e+00 6.500000e+00
      endloop
   endfacet
   facet normal 0.000000e+00 -1.000000e+00 0.000000e+00
      outer loop
         vertex 4.800000e+00 1.500000e+00 1.350000e+01
         vertex 3.200000e+00 1.500000e+00 1.350000e+01
         vertex 4.800000e+00 1.500000e+00 6.500000e+00
      endloop
   endfacet
   facet normal 0.000000e+00 -1.000000e+00 0.000000e+00
      outer loop
         vertex 4.800000e+00 1.500000e+00 6.500000e+00
         vertex 3.200000e+00 1.500000e+00 1.350000e+01
         vertex 3.200000e+00 1.500000e+00 6.500000e+00
      endloop
   endfacet
   facet normal 0.000000e+00 -1.000000e+00 0.000000e+00
      outer loop
         vertex 3.200000e+00 1.500000e+00 1.550000e+01
         vertex 3.000000e+00 1.500000e+00 1.650000e+01
         vertex 3.200000e+00 1.500000e+00 1.350000e+01
      endloop
   endfacet
   facet normal 0.000000e+00 -1.000000e+00 0.000000e+00
      outer loop
         vertex 3.200000e+00 1.500000e+00 1.350000e+01
         vertex 3.000000e+00 1.500000e+00 1.650000e+01
         vertex 3.200000e+00 1.500000e+00 6.500000e+00
      endloop
   endfacet
   facet normal 1.000000e+00 0.000000e+00 0.000000e+00
      outer loop
         vertex 4.800000e+00 1.500000e+00 1.350000e+01
         vertex 4.800000e+00 1.500000e+00 1.550000e+01
         vertex 4.800000e+00 0.000000e+00 1.550000e+01
      endloop
   endfacet
   facet normal 1.000000e+00 0.000000e+00 0.000000e+00
      outer loop
         vertex 4.800000e+00 1.500000e+00 1.350000e+01
         vertex 4.800000e+00 0.000000e+00 1.550000e+01
         vertex 4.800000e+00 0.000000e+00 1.350000e+01
      endloop
   endfacet
   facet normal 1.000000e+00 0.000000e+00 0.000000e+00
      outer loop
         vertex 4.800000e+00 6.500000e+00 1.550000e+01
         vertex 4.800000e+00 6.500000e+00 1.350000e+01
         vertex 4.800000e+00 9.500000e+00 1.350000e+01
      endloop
   endfacet
   facet normal 1.000000e+00 0.000000e+00 -0.000000e+00
      outer loop
         vertex 4.800000e+00 6.500000e+00 1.550000e+01
         vertex 4.800000e+00 9.500000e+00 1.350000e+01
         vertex 4.800000e+00 9.500000e+00 1.550000e+01
      endloop
   endfacet
   facet normal 1.000000e+00 0.000000e+00 0.000000e+00
      outer loop
         vertex 4.800000e+00 1.450000e+01 1.550000e+01
         vertex 4.800000e+00 1.450000e+01 1.350000e+01
         vertex 4.800000e+00 1.750000e+01 1.350000e+01
      endloop
   endfacet
   facet normal 1.000000e+00 0.000000e+00 -0.000000e+00
      outer loop
         vertex 4.800000e+00 1.450000e+01 1.550000e+01
         vertex 4.800000e+00 1.750000e+01 1.350000e+01
         vertex 4.800000e+00 1.750000e+01 1.550000e+01
      endloop
   endfacet
   facet normal 1.000000e+00 0.000000e+00 0.000000e+00
      outer loop
         vertex 4.800000e+00 2.250000e+01 1.550000e+01
         vertex 4.800000e+00 2.250000e+01 1.350000e+01
         vertex 4.800000e+00 2.550000e+01 1.350000e+01
      endloop
   endfacet
   facet normal 1.000000e+00 0.000000e+00 -0.000000e+00
      outer loop
         vertex 4.800000e+00 2.250000e+01 1.550000e+01
         vertex 4.800000e+00 2.550000e+01 1.350000e+01
         vertex 4.800000e+00 2.550000e+01 1.550000e+01
      endloop
   endfacet
   facet normal 1.000000e+00 0.000000e+00 0.000000e+00
      outer loop
         vertex 4.800000e+00 3.050000e+01 1.550000e+01
         vertex 4.800000e+00 3.050000e+01 1.350000e+01
         vertex 4.800000e+00 3.200000e+01 1.350000e+01
      endloop
   endfacet
   facet normal 1.000000e+00 0.000000e+00 -0.000000e+00
      outer loop
         vertex 4.800000e+00 3.050000e+01 1.550000e+01
         vertex 4.800000e+00 3.200000e+01 1.350000e+01
         vertex 4.800000e+00 3.200000e+01 1.550000e+01
      endloop
   endfacet
   facet normal -0.000000e+00 0.000000e+00 1.000000e+00
      outer loop
         vertex 4.800000e+00 1.500000e+00 1.550000e+01
         vertex 3.200000e+00 1.500000e+00 1.550000e+01
         vertex 3.200000e+00 0.000000e+00 1.550000e+01
      endloop
   endfacet
   facet normal 0.000000e+00 0.000000e+00 1.000000e+00
      outer loop
         vertex 4.800000e+00 1.500000e+00 1.550000e+01
         vertex 3.200000e+00 0.000000e+00 1.550000e+01
         vertex 4.800000e+00 0.000000e+00 1.550000e+01
      endloop
   endfacet
   facet normal 0.000000e+00 -0.000000e+00 1.000000e+00
      outer loop
         vertex 3.200000e+00 6.500000e+00 1.550000e+01
         vertex 4.800000e+00 6.500000e+00 1.550000e+01
         vertex 4.800000e+00 9.500000e+00 1.550000e+01
      endloop
   endfacet
   facet normal 0.000000e+00 0.000000e+00 1.000000e+00
      outer loop
         vertex 3.200000e+00 6.500000e+00 1.550000e+01
         vertex 4.800000e+00 9.500000e+00 1.550000e+01
         vertex 3.200000e+00 9.500000e+00 1.550000e+01
      endloop
   endfacet
   facet normal 0.000000e+00 -0.000000e+00 1.000000e+00
      outer loop
         vertex 3.200000e+00 1.450000e+01 1.550000e+01
         vertex 4.800000e+00 1.450000e+01 1.550000e+01
         vertex 4.800000e+00 1.750000e+01 1.550000e+01
      endloop
   endfacet
   facet normal 0.000000e+00 0.000000e+00 1.000000e+00
      outer loop
         vertex 3.200000e+00 1.450000e+01 1.550000e+01
         vertex 4.800000e+00 1.750000e+01 1.550000e+01
         vertex 3.200000e+00 1.750000e+01 1.550000e+01
      endloop
   endfacet
   facet normal 0.000000e+00 -0.000000e+00 1.000000e+00
      outer loop
         vertex 3.200000e+00 2.250000e+01 1.550000e+01
         vertex 4.800000e+00 2.250000e+01 1.550000e+01
         vertex 4.800000e+00 2.550000e+01 1.550000e+01
      endloop
   endfacet
   facet normal 0.000000e+00 0.000000e+00 1.000000e+00
      outer loop
         vertex 3.200000e+00 2.250000e+01 1.550000e+01
         vertex 4.800000e+00 2.550000e+01 1.550000e+01
         vertex 3.200000e+00 2.550000e+01 1.550000e+01
      endloop
   endfacet
   facet normal 0.000000e+00 -0.000000e+00 1.000000e+00
      outer loop
         vertex 3.200000e+00 3.050000e+01 1.550000e+01
         vertex 4.800000e+00 3.050000e+01 1.550000e+01
         vertex 4.800000e+00 3.200000e+01 1.550000e+01
      endloop
   endfacet
   facet normal 0.000000e+00 0.000000e+00 1.000000e+00
      outer loop
         vertex 3.200000e+00 3.050000e+01 1.550000e+01
         vertex 4.800000e+00 3.200000e+01 1.550000e+01
         vertex 3.200000e+00 3.200000e+01 1.550000e+01
      endloop
   endfacet
   facet normal -1.000000e+00 0.000000e+00 0.000000e+00
      outer loop
         vertex 3.200000e+00 1.500000e+00 1.550000e+01
         vertex 3.200000e+00 1.500000e+00 1.350000e+01
         vertex 3.200000e+00 0.000000e+00 1.350000e+01
      endloop
   endfacet
   facet normal -1.000000e+00 0.000000e+00 0.000000e+00
      outer loop
         vertex 3.200000e+00 1.500000e+00 1.550000e+01
         vertex 3.200000e+00 0.000000e+00 1.350000e+01
         vertex 3.200000e+00 0.000000e+00 1.550000e+01
      endloop
   endfacet
   facet normal -1.000000e+00 0.000000e+00 0.000000e+00
      outer loop
         vertex 3.200000e+00 6.500000e+00 1.350000e+01
         vertex 3.200000e+00 6.500000e+00 1.550000e+01
         vertex 3.200000e+00 9.500000e+00 1.550000e+01
      endloop
   endfacet
   facet normal -1.000000e+00 0.000000e+00 -0.000000e+00
      outer loop
         vertex 3.200000e+00 6.500000e+00 1.350000e+01
         vertex 3.200000e+00 9.500000e+00 1.550000e+01
         vertex 3.200000e+00 9.500000e+00 1.350000e+01
      endloop
   endfacet
   facet normal -1.000000e+00 0.000000e+00 0.000000e+00
      outer loop
         vertex 3.200000e+00 1.450000e+01 1.350000e+01
         vertex 3.200000e+00 1.450000e+01 1.550000e+01
         vertex 3.200000e+00 1.750000e+01 1.550000e+01
      endloop
   endfacet
   facet normal -1.000000e+00 0.000000e+00 -0.000000e+00
      outer loop
         vertex 3.200000e+00 1.450000e+01 1.350000e+01
         vertex 3.200000e+00 1.750000e+01 1.550000e+01
         vertex 3.200000e+00 1.750000e+01 1.350000e+01
      endloop
   endfacet
   facet normal -1.000000e+00 0.000000e+00 0.000000e+00
      outer loop
         vertex 3.200000e+00 2.250000e+01 1.350000e+01
         vertex 3.200000e+00 2.250000e+01 1.550000e+01
         vertex 3.200000e+00 2.550000e+01 1.550000e+01
      endloop
   endfacet
   facet normal -1.000000e+00 0.000000e+00 -0.000000e+00
      outer loop
         vertex 3.200000e+00 2.250000e+01 1.350000e+01
         vertex 3.200000e+00 2.550000e+01 1.550000e+01
         vertex 3.200000e+00 2.550000e+01 1.350000e+01
      endloop
   endfacet
   facet normal -1.000000e+00 0.000000e+00 0.000000e+00
      outer loop
         vertex 3.200000e+00 3.050000e+01 1.350000e+01
         vertex 3.200000e+00 3.050000e+01 1.550000e+01
         vertex 3.200000e+00 3.200000e+01 1.550000e+01
      endloop
   endfacet
   facet normal -1.000000e+00 0.000000e+00 -0.000000e+00
      outer loop
         vertex 3.200000e+00 3.050000e+01 1.350000e+01
         vertex 3.200000e+00 3.200000e+01 1.550000e+01
         vertex 3.200000e+00 3.200000e+01 1.350000e+01
      endloop
   endfacet
   facet normal -0.000000e+00 -0.000000e+00 -1.000000e+00
      outer loop
         vertex 3.200000e+00 1.500000e+00 1.350000e+01
         vertex 4.800000e+00 1.500000e+00 1.350000e+01
         vertex 4.800000e+00 0.000000e+00 1.350000e+01
      endloop
   endfacet
   facet normal 0.000000e+00 0.000000e+00 -1.000000e+00
      outer loop
         vertex 3.200000e+00 1.500000e+00 1.350000e+01
         vertex 4.800000e+00 0.000000e+00 1.350000e+01
         vertex 3.200000e+00 0.000000e+00 1.350000e+01
      endloop
   endfacet
   facet normal 0.000000e+00 0.000000e+00 -1.000000e+00
      outer loop
         vertex 4.800000e+00 6.500000e+00 1.350000e+01
         vertex 3.200000e+00 6.500000e+00 1.350000e+01
         vertex 3.200000e+00 9.500000e+00 1.350000e+01
      endloop
   endfacet
   facet normal 0.000000e+00 0.000000e+00 -1.000000e+00
      outer loop
         vertex 4.800000e+00 6.500000e+00 1.350000e+01
         vertex 3.200000e+00 9.500000e+00 1.350000e+01
         vertex 4.800000e+00 9.500000e+00 1.350000e+01
      endloop
   endfacet
   facet normal 0.000000e+00 0.000000e+00 -1.000000e+00
      outer loop
         vertex 4.800000e+00 1.450000e+01 1.350000e+01
         vertex 3.200000e+00 1.450000e+01 1.350000e+01
         vertex 3.200000e+00 1.750000e+01 1.350000e+01
      endloop
   endfacet
   facet normal 0.000000e+00 0.000000e+00 -1.000000e+00
      outer loop
         vertex 4.800000e+00 1.450000e+01 1.350000e+01
         vertex 3.200000e+00 1.750000e+01 1.350000e+01
         vertex 4.800000e+00 1.750000e+01 1.350000e+01
      endloop
   endfacet
   facet normal 0.000000e+00 0.000000e+00 -1.000000e+00
      outer loop
         vertex 4.800000e+00 2.250000e+01 1.350000e+01
         vertex 3.200000e+00 2.250000e+01 1.350000e+01
         vertex 3.200000e+00 2.550000e+01 1.350000e+01
      endloop
   endfacet
   facet normal 0.000000e+00 0.000000e+00 -1.000000e+00
      outer loop
         vertex 4.800000e+00 2.250000e+01 1.350000e+01
         vertex 3.200000e+00 2.550000e+01 1.350000e+01
         vertex 4.800000e+00 2.550000e+01 1.350000e+01
      endloop
   endfacet
   facet normal 0.000000e+00 0.000000e+00 -1.000000e+00
      outer loop
         vertex 4.800000e+00 3.050000e+01 1.350000e+01
         vertex 3.200000e+00 3.050000e+01 1.350000e+01
         vertex 3.200000e+00 3.200000e+01 1.350000e+01
      endloop
   endfacet
   facet normal 0.000000e+00 0.000000e+00 -1.000000e+00
      outer loop
         vertex 4.800000e+00 3.050000e+01 1.350000e+01
         vertex 3.200000e+00 3.200000e+01 1.350000e+01
         vertex 4.800000e+00 3.200000e+01 1.350000e+01
      endloop
   endfacet
   facet normal 1.000000e+00 0.000000e+00 0.000000e+00
      outer loop
         vertex 4.800000e+00 1.500000e+00 4.500000e+00
         vertex 4.800000e+00 1.500000e+00 6.500000e+00
         vertex 4.800000e+00 0.000000e+00 6.500000e+00
      endloop
   endfacet
   facet normal 1.000000e+00 0.000000e+00 0.000000e+00
      outer loop
         vertex 4.800000e+00 1.500000e+00 4.500000e+00
         vertex 4.800000e+00 0.000000e+00 6.500000e+00
         vertex 4.800000e+00 0.000000e+00 4.500000e+00
      endloop
   endfacet
   facet normal 1.000000e+00 0.000000e+00 0.000000e+00
      outer loop
         vertex 4.800000e+00 6.500000e+00 6.500000e+00
         vertex 4.800000e+00 6.500000e+00 4.500000e+00
         vertex 4.800000e+00 9.500000e+00 4.500000e+00
      endloop
   endfacet
   facet normal 1.000000e+00 0.000000e+00 -0.000000e+00
      outer loop
         vertex 4.800000e+00 6.500000e+00 6.500000e+00
         vertex 4.800000e+00 9.500000e+00 4.500000e+00
         vertex 4.800000e+00 9.500000e+00 6.500000e+00
      endloop
   endfacet
   facet normal 1.000000e+00 0.000000e+00 0.000000e+00
      outer loop
         vertex 4.800000e+00 1.450000e+01 6.500000e+00
         vertex 4.800000e+00 1.450000e+01 4.500000e+00
         vertex 4.800000e+00 1.750000e+01 4.500000e+00
      endloop
   endfacet
   facet normal 1.000000e+00 0.000000e+00 -0.000000e+00
      outer loop
         vertex 4.800000e+00 1.450000e+01 6.500000e+00
         vertex 4.800000e+00 1.750000e+01 4.500000e+00
         vertex 4.800000e+00 1.750000e+01 6.500000e+00
      endloop
   endfacet
   facet normal 1.000000e+00 0.000000e+00 0.000000e+00
      outer loop
         vertex 4.800000e+00 2.250000e+01 6.500000e+00
         vertex 4.800000e+00 2.250000e+01 4.500000e+00
         vertex 4.800000e+00 2.550000e+01 4.500000e+00
      endloop
   endfacet
   facet normal 1.000000e+00 0.000000e+00 -0.000000e+00
      outer loop
         vertex 4.800000e+00 2.250000e+01 6.500000e+00
         vertex 4.800000e+00 2.550000e+01 4.500000e+00
         vertex 4.800000e+00 2.550000e+01 6.500000e+00
      endloop
   endfacet
   facet normal 1.000000e+00 0.000000e+00 0.000000e+00
      outer loop
         vertex 4.800000e+00 3.050000e+01 6.500000e+00
         vertex 4.800000e+00 3.050000e+01 4.500000e+00
         vertex 4.800000e+00 3.200000e+01 4.500000e+00
      endloop
   endfacet
   facet normal 1.000000e+00 0.000000e+00 -0.000000e+00
      outer loop
         vertex 4.800000e+00 3.050000e+01 6.500000e+00
         vertex 4.800000e+00 3.200000e+01 4.500000e+00
         vertex 4.800000e+00 3.200000e+01 6.500000e+00
      endloop
   endfacet
   facet normal -0.000000e+00 0.000000e+00 1.000000e+00
      outer loop
         vertex 4.800000e+00 1.500000e+00 6.500000e+00
         vertex 3.200000e+00 1.500000e+00 6.500000e+00
         vertex 3.200000e+00 0.000000e+00 6.500000e+00
      endloop
   endfacet
   facet normal 0.000000e+00 0.000000e+00 1.000000e+00
      outer loop
         vertex 4.800000e+00 1.500000e+00 6.500000e+00
         vertex 3.200000e+00 0.000000e+00 6.500000e+00
         vertex 4.800000e+00 0.000000e+00 6.500000e+00
      endloop
   endfacet
   facet normal 0.000000e+00 -0.000000e+00 1.000000e+00
      outer loop
         vertex 3.200000e+00 6.500000e+00 6.500000e+00
         vertex 4.800000e+00 6.500000e+00 6.500000e+00
         vertex 4.800000e+00 9.500000e+00 6.500000e+00
      endloop
   endfacet
   facet normal 0.000000e+00 0.000000e+00 1.000000e+00
      outer loop
         vertex 3.200000e+00 6.500000e+00 6.500000e+00
         vertex 4.800000e+00 9.500000e+00 6.500000e+00
         vertex 3.200000e+00 9.500000e+00 6.500000e+00
      endloop
   endfacet
   facet normal 0.000000e+00 -0.000000e+00 1.000000e+00
      outer loop
         vertex 3.200000e+00 1.450000e+01 6.500000e+00
         vertex 4.800000e+00 1.450000e+01 6.500000e+00
         vertex 4.800000e+00 1.750000e+01 6.500000e+00
      endloop
   endfacet
   facet normal 0.000000e+00 0.000000e+00 1.000000e+00
      outer loop
         vertex 3.200000e+00 1.450000e+01 6.500000e+00
         vertex 4.800000e+00 1.750000e+01 6.500000e+00
         vertex 3.200000e+00 1.750000e+01 6.500000e+00
      endloop
   endfacet
   facet normal 0.000000e+00 -0.000000e+00 1.000000e+00
      outer loop
         vertex 3.200000e+00 2.250000e+01 6.500000e+00
         vertex 4.800000e+00 2.250000e+01 6.500000e+00
         vertex 4.800000e+00 2.550000e+01 6.500000e+00
      endloop
   endfacet
   facet normal 0.000000e+00 0.000000e+00 1.000000e+00
      outer loop
         vertex 3.200000e+00 2.250000e+01 6.500000e+00
         vertex 4.800000e+00 2.550000e+01 6.500000e+00
         vertex 3.200000e+00 2.550000e+01 6.500000e+00
      endloop
   endfacet
   facet normal 0.000000e+00 -0.000000e+00 1.000000e+00
      outer loop
         vertex 3.200000e+00 3.050000e+01 6.500000e+00
         vertex 4.800000e+00 3.050000e+01 6.500000e+00
         vertex 4.800000e+00 3.200000e+01 6.500000e+00
      endloop
   endfacet
   facet normal 0.000000e+00 0.000000e+00 1.000000e+00
      outer loop
         vertex 3.200000e+00 3.050000e+01 6.500000e+00
         vertex 4.800000e+00 3.200000e+01 6.500000e+00
         vertex 3.200000e+00 3.200000e+01 6.500000e+00
      endloop
   endfacet
   facet normal -1.000000e+00 0.000000e+00 0.000000e+00
      outer loop
         vertex 3.200000e+00 1.500000e+00 6.500000e+00
         vertex 3.200000e+00 1.500000e+00 4.500000e+00
         vertex 3.200000e+00 0.000000e+00 4.500000e+00
      endloop
   endfacet
   facet normal -1.000000e+00 0.000000e+00 0.000000e+00
      outer loop
         vertex 3.200000e+00 1.500000e+00 6.500000e+00
         vertex 3.200000e+00 0.000000e+00 4.500000e+00
         vertex 3.200000e+00 0.000000e+00 6.500000e+00
      endloop
   endfacet
   facet normal -1.000000e+00 0.000000e+00 0.000000e+00
      outer loop
         vertex 3.200000e+00 6.500000e+00 4.500000e+00
         vertex 3.200000e+00 6.500000e+00 6.500000e+00
         vertex 3.200000e+00 9.500000e+00 6.500000e+00
      endloop
   endfacet
   facet normal -1.000000e+00 0.000000e+00 -0.000000e+00
      outer loop
         vertex 3.200000e+00 6.500000e+00 4.500000e+00
         vertex 3.200000e+00 9.500000e+00 6.500000e+00
         vertex 3.200000e+00 9.500000e+00 4.500000e+00
      endloop
   endfacet
   facet normal -1.000000e+00 0.000000e+00 0.000000e+00
      outer loop
         vertex 3.200000e+00 1.450000e+01 4.500000e+00
         vertex 3.200000e+00 1.450000e+01 6.500000e+00
         vertex 3.200000e+00 1.750000e+01 6.500000e+00
      endloop
   endfacet
   facet normal -1.000000e+00 0.000000e+00 -0.000000e+00
      outer loop
         vertex 3.200000e+00 1.450000e+01 4.500000e+00
         vertex 3.200000e+00 1.750000e+01 6.500000e+00
         vertex 3.200000e+00 1.750000e+01 4.500000e+00
      endloop
   endfacet
   facet normal -1.000000e+00 0.000000e+00 0.000000e+00
      outer loop
         vertex 3.200000e+00 2.250000e+01 4.500000e+00
         vertex 3.200000e+00 2.250000e+01 6.500000e+00
         vertex 3.200000e+00 2.550000e+01 6.500000e+00
      endloop
   endfacet
   facet normal -1.000000e+00 0.000000e+00 -0.000000e+00
      outer loop
         vertex 3.200000e+00 2.250000e+01 4.500000e+00
         vertex 3.200000e+00 2.550000e+01 6.500000e+00
         vertex 3.200000e+00 2.550000e+01 4.500000e+00
      endloop
   endfacet
   facet normal -1.000000e+00 0.000000e+00 0.000000e+00
      outer loop
         vertex 3.200000e+00 3.050000e+01 4.500000e+00
         vertex 3.200000e+00 3.050000e+01 6.500000e+00
         vertex 3.200000e+00 3.200000e+01 6.500000e+00
      endloop
   endfacet
   facet normal -1.000000e+00 0.000000e+00 -0.000000e+00
      outer loop
         vertex 3.200000e+00 3.050000e+01 4.500000e+00
         vertex 3.200000e+00 3.200000e+01 6.500000e+00
         vertex 3.200000e+00 3.200000e+01 4.500000e+00
      endloop
   endfacet
   facet normal -0.000000e+00 -0.000000e+00 -1.000000e+00
      outer loop
         vertex 3.200000e+00 1.500000e+00 4.500000e+00
         vertex 4.800000e+00 1.500000e+00 4.500000e+00
         vertex 4.800000e+00 0.000000e+00 4.500000e+00
      endloop
   endfacet
   facet normal 0.000000e+00 0.000000e+00 -1.000000e+00
      outer loop
         vertex 3.200000e+00 1.500000e+00 4.500000e+00
         vertex 4.800000e+00 0.000000e+00 4.500000e+00
         vertex 3.200000e+00 0.000000e+00 4.500000e+00
      endloop
   endfacet
   facet normal 0.000000e+00 0.000000e+00 -1.000000e+00
      outer loop
         vertex 4.800000e+00 6.500000e+00 4.500000e+00
         vertex 3.200000e+00 6.500000e+00 4.500000e+00
         vertex 3.200000e+00 9.500000e+00 4.500000e+00
      endloop
   endfacet
   facet normal 0.000000e+00 0.000000e+00 -1.000000e+00
      outer loop
         vertex 4.800000e+00 6.500000e+00 4.500000e+00
         vertex 3.200000e+00 9.500000e+00 4.500000e+00
         vertex 4.800000e+00 9.500000e+00 4.500000e+00
      endloop
   endfacet
   facet normal 0.000000e+00 0.000000e+00 -1.000000e+00
      outer loop
         vertex 4.800000e+00 1.450000e+01 4.500000e+00
         vertex 3.200000e+00 1.450000e+01 4.500000e+00
         vertex 3.200000e+00 1.750000e+01 4.500000e+00
      endloop
   endfacet
   facet normal 0.000000e+00 0.000000e+00 -1.000000e+00
      outer loop
         vertex 4.800000e+00 1.450000e+01 4.500000e+00
         vertex 3.200000e+00 1.750000e+01 4.500000e+00
         vertex 4.800000e+00 1.750000e+01 4.500000e+00
      endloop
   endfacet
   facet normal 0.000000e+00 0.000000e+00 -1.000000e+00
      outer loop
         vertex 4.800000e+00 2.250000e+01 4.500000e+00
         vertex 3.200000e+00 2.250000e+01 4.500000e+00
         vertex 3.200000e+00 2.550000e+01 4.500000e+00
      endloop
   endfacet
   facet normal 0.000000e+00 0.000000e+00 -1.000000e+00
      outer loop
         vertex 4.800000e+00 2.250000e+01 4.500000e+00
         vertex 3.200000e+00 2.550000e+01 4.500000e+00
         vertex 4.800000e+00 2.550000e+01 4.500000e+00
      endloop
   endfacet
   facet normal 0.000000e+00 0.000000e+00 -1.000000e+00
      outer loop
         vertex 4.800000e+00 3.050000e+01 4.500000e+00
         vertex 3.200000e+00 3.050000e+01 4.500000e+00
         vertex 3.200000e+00 3.200000e+01 4.500000e+00
      endloop
   endfacet
   facet normal 0.000000e+00 0.000000e+00 -1.000000e+00
      outer loop
         vertex 4.800000e+00 3.050000e+01 4.500000e+00
         vertex 3.200000e+00 3.200000e+01 4.500000e+00
         vertex 4.800000e+00 3.200000e+01 4.500000e+00
      endloop
   endfacet
   facet normal 0.000000e+00 0.000000e+00 1.000000e+00
      outer loop
         vertex 8.000000e+00 0.000000e+00 3.000000e+00
         vertex 5.000000e+00 1.500000e+00 3.000000e+00
         vertex 0.000000e+00 0.000000e+00 3.000000e+00
      endloop
   endfacet
   facet normal -0.000000e+00 0.000000e+00 1.000000e+00
      outer loop
         vertex 5.000000e+00 1.500000e+00 3.000000e+00
         vertex 3.000000e+00 1.500000e+00 3.000000e+00
         vertex 0.000000e+00 0.000000e+00 3.000000e+00
      endloop
   endfacet
   facet normal 0.000000e+00 0.000000e+00 1.000000e+00
      outer loop
         vertex 0.000000e+00 0.000000e+00 3.000000e+00
         vertex 3.000000e+00 1.500000e+00 3.000000e+00
         vertex 0.000000e+00 3.200000e+01 3.000000e+00
      endloop
   endfacet
   facet normal 0.000000e+00 0.000000e+00 1.000000e+00
      outer loop
         vertex 3.000000e+00 1.500000e+00 3.000000e+00
         vertex 3.000000e+00 6.500000e+00 3.000000e+00
         vertex 0.000000e+00 3.200000e+01 3.000000e+00
      endloop
   endfacet
   facet normal 0.000000e+00 -0.000000e+00 1.000000e+00
      outer loop
         vertex 0.000000e+00 3.200000e+01 3.000000e+00
         vertex 3.000000e+00 3.050000e+01 3.000000e+00
         vertex 8.000000e+00 3.200000e+01 3.000000e+00
      endloop
   endfacet
   facet normal 0.000000e+00 -0.000000e+00 1.000000e+00
      outer loop
         vertex 3.000000e+00 3.050000e+01 3.000000e+00
         vertex 5.000000e+00 3.050000e+01 3.000000e+00
         vertex 8.000000e+00 3.200000e+01 3.000000e+00
      endloop
   endfacet
   facet normal -0.000000e+00 0.000000e+00 1.000000e+00
      outer loop
         vertex 8.000000e+00 3.200000e+01 3.000000e+00
         vertex 5.000000e+00 3.050000e+01 3.000000e+00
         vertex 8.000000e+00 0.000000e+00 3.000000e+00
      endloop
   endfacet
   facet normal -0.000000e+00 0.000000e+00 1.000000e+00
      outer loop
         vertex 5.000000e+00 3.050000e+01 3.000000e+00
         vertex 5.000000e+00 2.550000e+01 3.000000e+00
         vertex 8.000000e+00 0.000000e+00 3.000000e+00
      endloop
   endfacet
   facet normal 0.000000e+00 0.000000e+00 1.000000e+00
      outer loop
         vertex 8.000000e+00 0.000000e+00 3.000000e+00
         vertex 5.000000e+00 6.500000e+00 3.000000e+00
         vertex 5.000000e+00 1.500000e+00 3.000000e+00
      endloop
   endfacet
   facet normal 0.000000e+00 0.000000e+00 1.000000e+00
      outer loop
         vertex 8.000000e+00 0.000000e+00 3.000000e+00
         vertex 5.000000e+00 9.500000e+00 3.000000e+00
         vertex 5.000000e+00 6.500000e+00 3.000000e+00
      endloop
   endfacet
   facet normal -0.000000e+00 0.000000e+00 1.000000e+00
      outer loop
         vertex 5.000000e+00 9.500000e+00 3.000000e+00
         vertex 3.000000e+00 9.500000e+00 3.000000e+00
         vertex 5.000000e+00 6.500000e+00 3.000000e+00
      endloop
   endfacet
   facet normal 0.000000e+00 0.000000e+00 1.000000e+00
      outer loop
         vertex 5.000000e+00 6.500000e+00 3.000000e+00
         vertex 3.000000e+00 9.500000e+00 3.000000e+00
         vertex 3.000000e+00 6.500000e+00 3.000000e+00
      endloop
   endfacet
   facet normal 0.000000e+00 0.000000e+00 1.000000e+00
      outer loop
         vertex 8.000000e+00 0.000000e+00 3.000000e+00
         vertex 5.000000e+00 1.750000e+01 3.000000e+00
         vertex 5.000000e+00 1.450000e+01 3.000000e+00
      endloop
   endfacet
   facet normal 0.000000e+00 0.000000e+00 1.000000e+00
      outer loop
         vertex 5.000000e+00 1.450000e+01 3.000000e+00
         vertex 5.000000e+00 1.750000e+01 3.000000e+00
         vertex 3.000000e+00 1.450000e+01 3.000000e+00
      endloop
   endfacet
   facet normal -0.000000e+00 0.000000e+00 1.000000e+00
      outer loop
         vertex 5.000000e+00 1.750000e+01 3.000000e+00
         vertex 3.000000e+00 1.750000e+01 3.000000e+00
         vertex 3.000000e+00 1.450000e+01 3.000000e+00
      endloop
   endfacet
   facet normal 0.000000e+00 0.000000e+00 1.000000e+00
      outer loop
         vertex 8.000000e+00 0.000000e+00 3.000000e+00
         vertex 5.000000e+00 2.550000e+01 3.000000e+00
         vertex 5.000000e+00 2.250000e+01 3.000000e+00
      endloop
   endfacet
   facet normal -0.000000e+00 0.000000e+00 1.000000e+00
      outer loop
         vertex 5.000000e+00 2.550000e+01 3.000000e+00
         vertex 3.000000e+00 2.550000e+01 3.000000e+00
         vertex 5.000000e+00 2.250000e+01 3.000000e+00
      endloop
   endfacet
   facet normal 0.000000e+00 0.000000e+00 1.000000e+00
      outer loop
         vertex 5.000000e+00 2.250000e+01 3.000000e+00
         vertex 3.000000e+00 2.550000e+01 3.000000e+00
         vertex 3.000000e+00 2.250000e+01 3.000000e+00
      endloop
   endfacet
   facet normal 0.000000e+00 0.000000e+00 1.000000e+00
      outer loop
         vertex 3.000000e+00 3.050000e+01 3.000000e+00
         vertex 0.000000e+00 3.200000e+01 3.000000e+00
         vertex 3.000000e+00 2.550000e+01 3.000000e+00
      endloop
   endfacet
   facet normal 0.000000e+00 0.000000e+00 1.000000e+00
      outer loop
         vertex 3.000000e+00 2.550000e+01 3.000000e+00
         vertex 0.000000e+00 3.200000e+01 3.000000e+00
         vertex 3.000000e+00 2.250000e+01 3.000000e+00
      endloop
   endfacet
   facet normal 0.000000e+00 -0.000000e+00 1.000000e+00
      outer loop
         vertex 0.000000e+00 3.200000e+01 3.000000e+00
         vertex 3.000000e+00 1.750000e+01 3.000000e+00
         vertex 3.000000e+00 2.250000e+01 3.000000e+00
      endloop
   endfacet
   facet normal 0.000000e+00 0.000000e+00 1.000000e+00
      outer loop
         vertex 3.000000e+00 1.750000e+01 3.000000e+00
         vertex 0.000000e+00 3.200000e+01 3.000000e+00
         vertex 3.000000e+00 1.450000e+01 3.000000e+00
      endloop
   endfacet
   facet normal 0.000000e+00 0.000000e+00 1.000000e+00
      outer loop
         vertex 5.000000e+00 9.500000e+00 3.000000e+00
         vertex 8.000000e+00 0.000000e+00 3.000000e+00
         vertex 5.000000e+00 1.450000e+01 3.000000e+00
      endloop
   endfacet
   facet normal 0.000000e+00 0.000000e+00 1.000000e+00
      outer loop
         vertex 5.000000e+00 1.750000e+01 3.000000e+00
         vertex 8.000000e+00 0.000000e+00 3.000000e+00
         vertex 5.000000e+00 2.250000e+01 3.000000e+00
      endloop
   endfacet
   facet normal 0.000000e+00 0.000000e+00 1.000000e+00
      outer loop
         vertex 3.000000e+00 9.500000e+00 3.000000e+00
         vertex 0.000000e+00 3.200000e+01 3.000000e+00
         vertex 3.000000e+00 6.500000e+00 3.000000e+00
      endloop
   endfacet
   facet normal 0.000000e+00 0.000000e+00 1.000000e+00
      outer loop
         vertex 3.000000e+00 1.450000e+01 3.000000e+00
         vertex 0.000000e+00 3.200000e+01 3.000000e+00
         vertex 3.000000e+00 9.500000e+00 3.000000e+00
      endloop
   endfacet
   facet normal -1.000000e+00 0.000000e+00 0.000000e+00
      outer loop
         vertex 3.000000e+00 2.550000e+01 3.000000e+00
         vertex 3.000000e+00 2.550000e+01 1.650000e+01
         vertex 3.000000e+00 3.050000e+01 3.000000e+00
      endloop
   endfacet
   facet normal -1.000000e+00 0.000000e+00 -0.000000e+00
      outer loop
         vertex 3.000000e+00 2.550000e+01 1.650000e+01
         vertex 3.000000e+00 2.583494e+01 1.775000e+01
         vertex 3.000000e+00 3.050000e+01 3.000000e+00
      endloop
   endfacet
   facet normal -1.000000e+00 0.000000e+00 0.000000e+00
      outer loop
         vertex 3.000000e+00 3.050000e+01 3.000000e+00
         vertex 3.000000e+00 2.583494e+01 1.775000e+01
         vertex 3.000000e+00 3.050000e+01 1.650000e+01
      endloop
   endfacet
   facet normal -1.000000e+00 0.000000e+00 -0.000000e+00
      outer loop
         vertex 3.000000e+00 2.583494e+01 1.775000e+01
         vertex 3.000000e+00 2.675000e+01 1.866506e+01
         vertex 3.000000e+00 3.050000e+01 1.650000e+01
      endloop
   endfacet
   facet normal -1.000000e+00 0.000000e+00 0.000000e+00
      outer loop
         vertex 3.000000e+00 3.050000e+01 1.650000e+01
         vertex 3.000000e+00 2.675000e+01 1.866506e+01
         vertex 3.000000e+00 3.016506e+01 1.775000e+01
      endloop
   endfacet
   facet normal -1.000000e+00 0.000000e+00 -0.000000e+00
      outer loop
         vertex 3.000000e+00 2.675000e+01 1.866506e+01
         vertex 3.000000e+00 2.800000e+01 1.900000e+01
         vertex 3.000000e+00 3.016506e+01 1.775000e+01
      endloop
   endfacet
   facet normal -1.000000e+00 0.000000e+00 0.000000e+00
      outer loop
         vertex 3.000000e+00 3.016506e+01 1.775000e+01
         vertex 3.000000e+00 2.800000e+01 1.900000e+01
         vertex 3.000000e+00 2.925000e+01 1.866506e+01
      endloop
   endfacet
   facet normal 1.000000e+00 0.000000e+00 0.000000e+00
      outer loop
         vertex 5.000000e+00 2.583494e+01 1.775000e+01
         vertex 5.000000e+00 2.550000e+01 1.650000e+01
         vertex 5.000000e+00 2.675000e+01 1.866506e+01
      endloop
   endfacet
   facet normal 1.000000e+00 0.000000e+00 0.000000e+00
      outer loop
         vertex 5.000000e+00 2.550000e+01 1.650000e+01
         vertex 5.000000e+00 2.550000e+01 3.000000e+00
         vertex 5.000000e+00 2.675000e+01 1.866506e+01
      endloop
   endfacet
   facet normal 1.000000e+00 0.000000e+00 0.000000e+00
      outer loop
         vertex 5.000000e+00 2.675000e+01 1.866506e+01
         vertex 5.000000e+00 2.550000e+01 3.000000e+00
         vertex 5.000000e+00 2.800000e+01 1.900000e+01
      endloop
   endfacet
   facet normal 1.000000e+00 0.000000e+00 0.000000e+00
      outer loop
         vertex 5.000000e+00 2.550000e+01 3.000000e+00
         vertex 5.000000e+00 3.050000e+01 3.000000e+00
         vertex 5.000000e+00 2.800000e+01 1.900000e+01
      endloop
   endfacet
   facet normal 1.000000e+00 0.000000e+00 0.000000e+00
      outer loop
         vertex 5.000000e+00 2.800000e+01 1.900000e+01
         vertex 5.000000e+00 3.050000e+01 3.000000e+00
         vertex 5.000000e+00 2.925000e+01 1.866506e+01
      endloop
   endfacet
   facet normal 1.000000e+00 0.000000e+00 0.000000e+00
      outer loop
         vertex 5.000000e+00 3.050000e+01 3.000000e+00
         vertex 5.000000e+00 3.050000e+01 1.650000e+01
         vertex 5.000000e+00 2.925000e+01 1.866506e+01
      endloop
   endfacet
   facet normal 1.000000e+00 0.000000e+00 0.000000e+00
      outer loop
         vertex 5.000000e+00 2.925000e+01 1.866506e+01
         vertex 5.000000e+00 3.050000e+01 1.650000e+01
         vertex 5.000000e+00 3.016506e+01 1.775000e+01
      endloop
   endfacet
   facet normal -1.000000e+00 0.000000e+00 0.000000e+00
      outer loop
         vertex 3.000000e+00 1.750000e+01 3.000000e+00
         vertex 3.000000e+00 1.750000e+01 1.650000e+01
         vertex 3.000000e+00 2.250000e+01 3.000000e+00
      endloop
   endfacet
   facet normal -1.000000e+00 0.000000e+00 -0.000000e+00
      outer loop
         vertex 3.000000e+00 1.750000e+01 1.650000e+01
         vertex 3.000000e+00 1.783494e+01 1.775000e+01
         vertex 3.000000e+00 2.250000e+01 3.000000e+00
      endloop
   endfacet
   facet normal -1.000000e+00 0.000000e+00 0.000000e+00
      outer loop
         vertex 3.000000e+00 2.250000e+01 3.000000e+00
         vertex 3.000000e+00 1.783494e+01 1.775000e+01
         vertex 3.000000e+00 2.250000e+01 1.650000e+01
      endloop
   endfacet
   facet normal -1.000000e+00 0.000000e+00 -0.000000e+00
      outer loop
         vertex 3.000000e+00 1.783494e+01 1.775000e+01
         vertex 3.000000e+00 1.875000e+01 1.866506e+01
         vertex 3.000000e+00 2.250000e+01 1.650000e+01
      endloop
   endfacet
   facet normal -1.000000e+00 0.000000e+00 0.000000e+00
      outer loop
         vertex 3.000000e+00 2.250000e+01 1.650000e+01
         vertex 3.000000e+00 1.875000e+01 1.866506e+01
         vertex 3.000000e+00 2.216506e+01 1.775000e+01
      endloop
   endfacet
   facet normal -1.000000e+00 0.000000e+00 -0.000000e+00
      outer loop
         vertex 3.000000e+00 1.875000e+01 1.866506e+01
         vertex 3.000000e+00 2.000000e+01 1.900000e+01
         vertex 3.000000e+00 2.216506e+01 1.775000e+01
      endloop
   endfacet
   facet normal -1.000000e+00 0.000000e+00 0.000000e+00
      outer loop
         vertex 3.000000e+00 2.216506e+01 1.775000e+01
         vertex 3.000000e+00 2.000000e+01 1.900000e+01
         vertex 3.000000e+00 2.125000e+01 1.866506e+01
      endloop
   endfacet
   facet normal 1.000000e+00 0.000000e+00 0.000000e+00
      outer loop
         vertex 5.000000e+00 1.783494e+01 1.775000e+01
         vertex 5.000000e+00 1.750000e+01 1.650000e+01
         vertex 5.000000e+00 1.875000e+01 1.866506e+01
      endloop
   endfacet
   facet normal 1.000000e+00 0.000000e+00 0.000000e+00
      outer loop
         vertex 5.000000e+00 1.750000e+01 1.650000e+01
         vertex 5.000000e+00 1.750000e+01 3.000000e+00
         vertex 5.000000e+00 1.875000e+01 1.866506e+01
      endloop
   endfacet
   facet normal 1.000000e+00 0.000000e+00 0.000000e+00
      outer loop
         vertex 5.000000e+00 1.875000e+01 1.866506e+01
         vertex 5.000000e+00 1.750000e+01 3.000000e+00
         vertex 5.000000e+00 2.000000e+01 1.900000e+01
      endloop
   endfacet
   facet normal 1.000000e+00 0.000000e+00 0.000000e+00
      outer loop
         vertex 5.000000e+00 1.750000e+01 3.000000e+00
         vertex 5.000000e+00 2.250000e+01 3.000000e+00
         vertex 5.000000e+00 2.000000e+01 1.900000e+01
      endloop
   endfacet
   facet normal 1.000000e+00 0.000000e+00 0.000000e+00
      outer loop
         vertex 5.000000e+00 2.000000e+01 1.900000e+01
         vertex 5.000000e+00 2.250000e+01 3.000000e+00
         vertex 5.000000e+00 2.125000e+01 1.866506e+01
      endloop
   endfacet
   facet normal 1.000000e+00 0.000000e+00 0.000000e+00
      outer loop
         vertex 5.000000e+00 2.250000e+01 3.000000e+00
         vertex 5.000000e+00 2.250000e+01 1.650000e+01
         vertex 5.000000e+00 2.125000e+01 1.866506e+01
      endloop
   endfacet
   facet normal 1.000000e+00 0.000000e+00 0.000000e+00
      outer loop
         vertex 5.000000e+00 2.125000e+01 1.866506e+01
         vertex 5.000000e+00 2.250000e+01 1.650000e+01
         vertex 5.000000e+00 2.216506e+01 1.775000e+01
      endloop
   endfacet
   facet normal -1.000000e+00 0.000000e+00 0.000000e+00
      outer loop
         vertex 3.000000e+00 9.500000e+00 3.000000e+00
         vertex 3.000000e+00 9.500000e+00 1.650000e+01
         vertex 3.000000e+00 1.450000e+01 3.000000e+00
      endloop
   endfacet
   facet normal -1.000000e+00 0.000000e+00 -0.000000e+00
      outer loop
         vertex 3.000000e+00 9.500000e+00 1.650000e+01
         vertex 3.000000e+00 9.834936e+00 1.775000e+01
         vertex 3.000000e+00 1.450000e+01 3.000000e+00
      endloop
   endfacet
   facet normal -1.000000e+00 0.000000e+00 0.000000e+00
      outer loop
         vertex 3.000000e+00 1.450000e+01 3.000000e+00
         vertex 3.000000e+00 9.834936e+00 1.775000e+01
         vertex 3.000000e+00 1.450000e+01 1.650000e+01
      endloop
   endfacet
   facet normal -1.000000e+00 0.000000e+00 -0.000000e+00
      outer loop
         vertex 3.000000e+00 9.834936e+00 1.775000e+01
         vertex 3.000000e+00 1.075000e+01 1.866506e+01
         vertex 3.000000e+00 1.450000e+01 1.650000e+01
      endloop
   endfacet
   facet normal -1.000000e+00 0.000000e+00 0.000000e+00
      outer loop
         vertex 3.000000e+00 1.450000e+01 1.650000e+01
         vertex 3.000000e+00 1.075000e+01 1.866506e+01
         vertex 3.000000e+00 1.416506e+01 1.775000e+01
      endloop
   endfacet
   facet normal -1.000000e+00 0.000000e+00 -0.000000e+00
      outer loop
         vertex 3.000000e+00 1.075000e+01 1.866506e+01
         vertex 3.000000e+00 1.200000e+01 1.900000e+01
         vertex 3.000000e+00 1.416506e+01 1.775000e+01
      endloop
   endfacet
   facet normal -1.000000e+00 0.000000e+00 0.000000e+00
      outer loop
         vertex 3.000000e+00 1.416506e+01 1.775000e+01
         vertex 3.000000e+00 1.200000e+01 1.900000e+01
         vertex 3.000000e+00 1.325000e+01 1.866506e+01
      endloop
   endfacet
   facet normal 1.000000e+00 0.000000e+00 0.000000e+00
      outer loop
         vertex 5.000000e+00 9.834936e+00 1.775000e+01
         vertex 5.000000e+00 9.500000e+00 1.650000e+01
         vertex 5.000000e+00 1.075000e+01 1.866506e+01
      endloop
   endfacet
   facet normal 1.000000e+00 0.000000e+00 0.000000e+00
      outer loop
         vertex 5.000000e+00 9.500000e+00 1.650000e+01
         vertex 5.000000e+00 9.500000e+00 3.000000e+00
         vertex 5.000000e+00 1.075000e+01 1.866506e+01
      endloop
   endfacet
   facet normal 1.000000e+00 0.000000e+00 0.000000e+00
      outer loop
         vertex 5.000000e+00 1.075000e+01 1.866506e+01
         vertex 5.000000e+00 9.500000e+00 3.000000e+00
         vertex 5.000000e+00 1.200000e+01 1.900000e+01
      endloop
   endfacet
   facet normal 1.000000e+00 0.000000e+00 0.000000e+00
      outer loop
         vertex 5.000000e+00 9.500000e+00 3.000000e+00
         vertex 5.000000e+00 1.450000e+01 3.000000e+00
         vertex 5.000000e+00 1.200000e+01 1.900000e+01
      endloop
   endfacet
   facet normal 1.000000e+00 0.000000e+00 0.000000e+00
      outer loop
         vertex 5.000000e+00 1.200000e+01 1.900000e+01
         vertex 5.000000e+00 1.450000e+01 3.000000e+00
         vertex 5.000000e+00 1.325000e+01 1.866506e+01
      endloop
   endfacet
   facet normal 1.000000e+00 0.000000e+00 0.000000e+00
      outer loop
         vertex 5.000000e+00 1.450000e+01 3.000000e+00
         vertex 5.000000e+00 1.450000e+01 1.650000e+01
         vertex 5.000000e+00 1.325000e+01 1.866506e+01
      endloop
   endfacet
   facet normal 1.000000e+00 0.000000e+00 0.000000e+00
      outer loop
         vertex 5.000000e+00 1.325000e+01 1.866506e+01
         vertex 5.000000e+00 1.450000e+01 1.650000e+01
         vertex 5.000000e+00 1.416506e+01 1.775000e+01
      endloop
   endfacet
   facet normal -1.000000e+00 0.000000e+00 0.000000e+00
      outer loop
         vertex 3.000000e+00 1.500000e+00 3.000000e+00
         vertex 3.000000e+00 1.500000e+00 1.650000e+01
         vertex 3.000000e+00 6.500000e+00 3.000000e+00
      endloop
   endfacet
   facet normal -1.000000e+00 0.000000e+00 -0.000000e+00
      outer loop
         vertex 3.000000e+00 1.500000e+00 1.650000e+01
         vertex 3.000000e+00 1.834936e+00 1.775000e+01
         vertex 3.000000e+00 6.500000e+00 3.000000e+00
      endloop
   endfacet
   facet normal -1.000000e+00 0.000000e+00 0.000000e+00
      outer loop
         vertex 3.000000e+00 6.500000e+00 3.000000e+00
         vertex 3.000000e+00 1.834936e+00 1.775000e+01
         vertex 3.000000e+00 6.500000e+00 1.650000e+01
      endloop
   endfacet
   facet normal -1.000000e+00 0.000000e+00 -0.000000e+00
      outer loop
         vertex 3.000000e+00 1.834936e+00 1.775000e+01
         vertex 3.000000e+00 2.750000e+00 1.866506e+01
         vertex 3.000000e+00 6.500000e+00 1.650000e+01
      endloop
   endfacet
   facet normal -1.000000e+00 0.000000e+00 0.000000e+00
      outer loop
         vertex 3.000000e+00 6.500000e+00 1.650000e+01
         vertex 3.000000e+00 2.750000e+00 1.866506e+01
         vertex 3.000000e+00 6.165063e+00 1.775000e+01
      endloop
   endfacet
   facet normal -1.000000e+00 0.000000e+00 -0.000000e+00
      outer loop
         vertex 3.000000e+00 2.750000e+00 1.866506e+01
         vertex 3.000000e+00 4.000000e+00 1.900000e+01
         vertex 3.000000e+00 6.165063e+00 1.775000e+01
      endloop
   endfacet
   facet normal -1.000000e+00 0.000000e+00 0.000000e+00
      outer loop
         vertex 3.000000e+00 6.165063e+00 1.775000e+01
         vertex 3.000000e+00 4.000000e+00 1.900000e+01
         vertex 3.000000e+00 5.250000e+00 1.866506e+01
      endloop
   endfacet
   facet normal 1.000000e+00 0.000000e+00 0.000000e+00
      outer loop
         vertex 5.000000e+00 1.834936e+00 1.775000e+01
         vertex 5.000000e+00 1.500000e+00 1.650000e+01
         vertex 5.000000e+00 2.750000e+00 1.866506e+01
      endloop
   endfacet
   facet normal 1.000000e+00 0.000000e+00 0.000000e+00
      outer loop
         vertex 5.000000e+00 1.500000e+00 1.650000e+01
         vertex 5.000000e+00 1.500000e+00 3.000000e+00
         vertex 5.000000e+00 2.750000e+00 1.866506e+01
      endloop
   endfacet
   facet normal 1.000000e+00 0.000000e+00 0.000000e+00
      outer loop
         vertex 5.000000e+00 2.750000e+00 1.866506e+01
         vertex 5.000000e+00 1.500000e+00 3.000000e+00
         vertex 5.000000e+00 4.000000e+00 1.900000e+01
      endloop
   endfacet
   facet normal 1.000000e+00 0.000000e+00 0.000000e+00
      outer loop
         vertex 5.000000e+00 1.500000e+00 3.000000e+00
         vertex 5.000000e+00 6.500000e+00 3.000000e+00
         vertex 5.000000e+00 4.000000e+00 1.900000e+01
      endloop
   endfacet
   facet normal 1.000000e+00 0.000000e+00 0.000000e+00
      outer loop
         vertex 5.000000e+00 4.000000e+00 1.900000e+01
         vertex 5.000000e+00 6.500000e+00 3.000000e+00
         vertex 5.000000e+00 5.250000e+00 1.866506e+01
      endloop
   endfacet
   facet normal 1.000000e+00 0.000000e+00 0.000000e+00
      outer loop
         vertex 5.000000e+00 6.500000e+00 3.000000e+00
         vertex 5.000000e+00 6.500000e+00 1.650000e+01
         vertex 5.000000e+00 5.250000e+00 1.866506e+01
      endloop
   endfacet
   facet normal 1.000000e+00 0.000000e+00 0.000000e+00
      outer loop
         vertex 5.000000e+00 5.250000e+00 1.866506e+01
         vertex 5.000000e+00 6.500000e+00 1.650000e+01
         vertex 5.000000e+00 6.165063e+00 1.775000e+01
      endloop
   endfacet
   facet normal 0.000000e+00 -1.000000e+00 0.000000e+00
      outer loop
         vertex 3.200000e+00 0.000000e+00 1.550000e+01
         vertex 3.200000e+00 0.000000e+00 1.350000e+01
         vertex 4.800000e+00 0.000000e+00 1.350000e+01
      endloop
   endfacet
   facet normal 0.000000e+00 -1.000000e+00 0.000000e+00
      outer loop
         vertex 4.800000e+00 0.000000e+00 1.550000e+01
         vertex 3.200000e+00 0.000000e+00 1.550000e+01
         vertex 4.800000e+00 0.000000e+00 1.350000e+01
      endloop
   endfacet
   facet normal 0.000000e+00 1.000000e+00 0.000000e+00
      outer loop
         vertex 4.800000e+00 3.200000e+01 1.350000e+01
         vertex 3.200000e+00 3.200000e+01 1.350000e+01
         vertex 3.200000e+00 3.200000e+01 1.550000e+01
      endloop
   endfacet
   facet normal -0.000000e+00 1.000000e+00 0.000000e+00
      outer loop
         vertex 4.800000e+00 3.200000e+01 1.350000e+01
         vertex 3.200000e+00 3.200000e+01 1.550000e+01
         vertex 4.800000e+00 3.200000e+01 1.550000e+01
      endloop
   endfacet
   facet normal 0.000000e+00 -1.000000e+00 0.000000e+00
      outer loop
         vertex 3.200000e+00 0.000000e+00 6.500000e+00
         vertex 3.200000e+00 0.000000e+00 4.500000e+00
         vertex 4.800000e+00 0.000000e+00 4.500000e+00
      endloop
   endfacet
   facet normal 0.000000e+00 -1.000000e+00 0.000000e+00
      outer loop
         vertex 4.800000e+00 0.000000e+00 6.500000e+00
         vertex 3.200000e+00 0.000000e+00 6.500000e+00
         vertex 4.800000e+00 0.000000e+00 4.500000e+00
      endloop
   endfacet
   facet normal 0.000000e+00 1.000000e+00 0.000000e+00
      outer loop
         vertex 4.800000e+00 3.200000e+01 4.500000e+00
         vertex 3.200000e+00 3.200000e+01 4.500000e+00
         vertex 3.200000e+00 3.200000e+01 6.500000e+00
      endloop
   endfacet
   facet normal -0.000000e+00 1.000000e+00 0.000000e+00
      outer loop
         vertex 4.800000e+00 3.200000e+01 4.500000e+00
         vertex 3.200000e+00 3.200000e+01 6.500000e+00
         vertex 4.800000e+00 3.200000e+01 6.500000e+00
      endloop
   endfacet
   facet normal 0.000000e+00 1.000000e+00 0.000000e+00
      outer loop
         vertex 8.000000e+00 3.200000e+01 0.000000e+00
         vertex 0.000000e+00 3.200000e+01 0.000000e+00
         vertex 0.000000e+00 3.200000e+01 3.000000e+00
      endloop
   endfacet
   facet normal -0.000000e+00 1.000000e+00 0.000000e+00
      outer loop
         vertex 8.000000e+00 3.200000e+01 0.000000e+00
         vertex 0.000000e+00 3.200000e+01 3.000000e+00
         vertex 8.000000e+00 3.200000e+01 3.000000e+00
      endloop
   endfacet
   facet normal -1.000000e+00 0.000000e+00 0.000000e+00
      outer loop
         vertex 0.000000e+00 3.200000e+01 0.000000e+00
         vertex 0.000000e+00 0.000000e+00 0.000000e+00
         vertex 0.000000e+00 0.000000e+00 3.000000e+00
      endloop
   endfacet
   facet normal -1.000000e+00 0.000000e+00 0.000000e+00
      outer loop
         vertex 0.000000e+00 3.200000e+01 0.000000e+00
         vertex 0.000000e+00 0.000000e+00 3.000000e+00
         vertex 0.000000e+00 3.200000e+01 3.000000e+00
      endloop
   endfacet
   facet normal 0.000000e+00 -1.000000e+00 0.000000e+00
      outer loop
         vertex 0.000000e+00 0.000000e+00 0.000000e+00
         vertex 8.000000e+00 0.000000e+00 0.000000e+00
         vertex 8.000000e+00 0.000000e+00 3.000000e+00
      endloop
   endfacet
   facet normal -0.000000e+00 -1.000000e+00 0.000000e+00
      outer loop
         vertex 0.000000e+00 0.000000e+00 0.000000e+00
         vertex 8.000000e+00 0.000000e+00 3.000000e+00
         vertex 0.000000e+00 0.000000e+00 3.000000e+00
      endloop
   endfacet
   facet normal 1.000000e+00 0.000000e+00 -0.000000e+00
      outer loop
         vertex 8.000000e+00 0.000000e+00 0.000000e+00
         vertex 8.000000e+00 3.200000e+01 0.000000e+00
         vertex 8.000000e+00 3.200000e+01 3.000000e+00
      endloop
   endfacet
   facet normal 1.000000e+00 0.000000e+00 0.000000e+00
      outer loop
         vertex 8.000000e+00 0.000000e+00 0.000000e+00
         vertex 8.000000e+00 3.200000e+01 3.000000e+00
         vertex 8.000000e+00 0.000000e+00 3.000000e+00
      endloop
   endfacet
   facet normal 0.000000e+00 0.000000e+00 -1.000000e+00
      outer loop
         vertex 8.000000e+00 3.200000e+01 0.000000e+00
         vertex 6.500000e+00 3.050000e+01 0.000000e+00
         vertex 0.000000e+00 3.200000e+01 0.000000e+00
      endloop
   endfacet
   facet normal 0.000000e+00 0.000000e+00 -1.000000e+00
      outer loop
         vertex 6.500000e+00 3.050000e+01 0.000000e+00
         vertex 1.500000e+00 3.050000e+01 0.000000e+00
         vertex 0.000000e+00 3.200000e+01 0.000000e+00
      endloop
   endfacet
   facet normal -0.000000e+00 0.000000e+00 -1.000000e+00
      outer loop
         vertex 0.000000e+00 3.200000e+01 0.000000e+00
         vertex 1.500000e+00 3.050000e+01 0.000000e+00
         vertex 0.000000e+00 0.000000e+00 0.000000e+00
      endloop
   endfacet
   facet normal -0.000000e+00 0.000000e+00 -1.000000e+00
      outer loop
         vertex 1.500000e+00 3.050000e+01 0.000000e+00
         vertex 1.500000e+00 1.500000e+00 0.000000e+00
         vertex 0.000000e+00 0.000000e+00 0.000000e+00
      endloop
   endfacet
   facet normal 0.000000e+00 -0.000000e+00 -1.000000e+00
      outer loop
         vertex 0.000000e+00 0.000000e+00 0.000000e+00
         vertex 1.500000e+00 1.500000e+00 0.000000e+00
         vertex 8.000000e+00 0.000000e+00 0.000000e+00
      endloop
   endfacet
   facet normal -0.000000e+00 -0.000000e+00 -1.000000e+00
      outer loop
         vertex 1.500000e+00 1.500000e+00 0.000000e+00
         vertex 6.500000e+00 1.500000e+00 0.000000e+00
         vertex 8.000000e+00 0.000000e+00 0.000000e+00
      endloop
   endfacet
   facet normal 0.000000e+00 0.000000e+00 -1.000000e+00
      outer loop
         vertex 8.000000e+00 0.000000e+00 0.000000e+00
         vertex 6.500000e+00 1.500000e+00 0.000000e+00
         vertex 8.000000e+00 3.200000e+01 0.000000e+00
      endloop
   endfacet
   facet normal 0.000000e+00 0.000000e+00 -1.000000e+00
      outer loop
         vertex 6.500000e+00 1.500000e+00 0.000000e+00
         vertex 6.500000e+00 3.050000e+01 0.000000e+00
         vertex 8.000000e+00 3.200000e+01 0.000000e+00
      endloop
   endfacet
   facet normal -1.000000e+00 0.000000e+00 0.000000e+00
      outer loop
         vertex 6.500000e+00 3.050000e+01 0.000000e+00
         vertex 6.500000e+00 1.500000e+00 0.000000e+00
         vertex 6.500000e+00 1.500000e+00 2.000000e+00
      endloop
   endfacet
   facet normal -1.000000e+00 0.000000e+00 0.000000e+00
      outer loop
         vertex 6.500000e+00 3.050000e+01 2.000000e+00
         vertex 6.500000e+00 3.050000e+01 0.000000e+00
         vertex 6.500000e+00 1.500000e+00 2.000000e+00
      endloop
   endfacet
   facet normal 0.000000e+00 -1.000000e+00 0.000000e+00
      outer loop
         vertex 1.500000e+00 3.050000e+01 0.000000e+00
         vertex 6.500000e+00 3.050000e+01 0.000000e+00
         vertex 6.500000e+00 3.050000e+01 2.000000e+00
      endloop
   endfacet
   facet normal 0.000000e+00 -1.000000e+00 0.000000e+00
      outer loop
         vertex 1.500000e+00 3.050000e+01 2.000000e+00
         vertex 1.500000e+00 3.050000e+01 0.000000e+00
         vertex 6.500000e+00 3.050000e+01 2.000000e+00
      endloop
   endfacet
   facet normal 1.000000e+00 0.000000e+00 -0.000000e+00
      outer loop
         vertex 1.500000e+00 1.500000e+00 0.000000e+00
         vertex 1.500000e+00 3.050000e+01 0.000000e+00
         vertex 1.500000e+00 3.050000e+01 2.000000e+00
      endloop
   endfacet
   facet normal 1.000000e+00 0.000000e+00 0.000000e+00
      outer loop
         vertex 1.500000e+00 1.500000e+00 2.000000e+00
         vertex 1.500000e+00 1.500000e+00 0.000000e+00
         vertex 1.500000e+00 3.050000e+01 2.000000e+00
      endloop
   endfacet
   facet normal 0.000000e+00 1.000000e+00 0.000000e+00
      outer loop
         vertex 6.500000e+00 1.500000e+00 0.000000e+00
         vertex 1.500000e+00 1.500000e+00 0.000000e+00
         vertex 1.500000e+00 1.500000e+00 2.000000e+00
      endloop
   endfacet
   facet normal 0.000000e+00 1.000000e+00 -0.000000e+00
      outer loop
         vertex 6.500000e+00 1.500000e+00 2.000000e+00
         vertex 6.500000e+00 1.500000e+00 0.000000e+00
         vertex 1.500000e+00 1.500000e+00 2.000000e+00
      endloop
   endfacet
   facet normal -0.000000e+00 -0.000000e+00 -1.000000e+00
      outer loop
         vertex 1.500000e+00 3.050000e+01 2.000000e+00
         vertex 6.500000e+00 3.050000e+01 2.000000e+00
         vertex 6.500000e+00 1.500000e+00 2.000000e+00
      endloop
   endfacet
   facet normal 0.000000e+00 0.000000e+00 -1.000000e+00
      outer loop
         vertex 1.500000e+00 1.500000e+00 2.000000e+00
         vertex 1.500000e+00 3.050000e+01 2.000000e+00
         vertex 6.500000e+00 1.500000e+00 2.000000e+00
      endloop
   endfacet
   facet normal -0.000000e+00 9.659259e-01 2.588188e-01
      outer loop
         vertex 3.000000e+00 3.050000e+01 1.650000e+01
         vertex 3.000000e+00 3.016506e+01 1.775000e+01
         vertex 5.000000e+00 3.016506e+01 1.775000e+01
      endloop
   endfacet
   facet normal 0.000000e+00 9.659259e-01 2.588188e-01
      outer loop
         vertex 3.000000e+00 3.050000e+01 1.650000e+01
         vertex 5.000000e+00 3.016506e+01 1.775000e+01
         vertex 5.000000e+00 3.050000e+01 1.650000e+01
      endloop
   endfacet
   facet normal -0.000000e+00 7.071068e-01 7.071068e-01
      outer loop
         vertex 3.000000e+00 3.016506e+01 1.775000e+01
         vertex 3.000000e+00 2.925000e+01 1.866506e+01
         vertex 5.000000e+00 2.925000e+01 1.866506e+01
      endloop
   endfacet
   facet normal 0.000000e+00 7.071068e-01 7.071068e-01
      outer loop
         vertex 3.000000e+00 3.016506e+01 1.775000e+01
         vertex 5.000000e+00 2.925000e+01 1.866506e+01
         vertex 5.000000e+00 3.016506e+01 1.775000e+01
      endloop
   endfacet
   facet normal -0.000000e+00 2.588188e-01 9.659259e-01
      outer loop
         vertex 3.000000e+00 2.925000e+01 1.866506e+01
         vertex 3.000000e+00 2.800000e+01 1.900000e+01
         vertex 5.000000e+00 2.800000e+01 1.900000e+01
      endloop
   endfacet
   facet normal 0.000000e+00 2.588188e-01 9.659259e-01
      outer loop
         vertex 3.000000e+00 2.925000e+01 1.866506e+01
         vertex 5.000000e+00 2.800000e+01 1.900000e+01
         vertex 5.000000e+00 2.925000e+01 1.866506e+01
      endloop
   endfacet
   facet normal 0.000000e+00 -2.588188e-01 9.659259e-01
      outer loop
         vertex 3.000000e+00 2.800000e+01 1.900000e+01
         vertex 3.000000e+00 2.675000e+01 1.866506e+01
         vertex 5.000000e+00 2.675000e+01 1.866506e+01
      endloop
   endfacet
   facet normal 0.000000e+00 -2.588188e-01 9.659259e-01
      outer loop
         vertex 3.000000e+00 2.800000e+01 1.900000e+01
         vertex 5.000000e+00 2.675000e+01 1.866506e+01
         vertex 5.000000e+00 2.800000e+01 1.900000e+01
      endloop
   endfacet
   facet normal 0.000000e+00 -7.071068e-01 7.071068e-01
      outer loop
         vertex 3.000000e+00 2.675000e+01 1.866506e+01
         vertex 3.000000e+00 2.583494e+01 1.775000e+01
         vertex 5.000000e+00 2.583494e+01 1.775000e+01
      endloop
   endfacet
   facet normal 0.000000e+00 -7.071068e-01 7.071068e-01
      outer loop
         vertex 3.000000e+00 2.675000e+01 1.866506e+01
         vertex 5.000000e+00 2.583494e+01 1.775000e+01
         vertex 5.000000e+00 2.675000e+01 1.866506e+01
      endloop
   endfacet
   facet normal 0.000000e+00 -9.659259e-01 2.588188e-01
      outer loop
         vertex 3.000000e+00 2.583494e+01 1.775000e+01
         vertex 3.000000e+00 2.550000e+01 1.650000e+01
         vertex 5.000000e+00 2.550000e+01 1.650000e+01
      endloop
   endfacet
   facet normal 0.000000e+00 -9.659259e-01 2.588188e-01
      outer loop
         vertex 3.000000e+00 2.583494e+01 1.775000e+01
         vertex 5.000000e+00 2.550000e+01 1.650000e+01
         vertex 5.000000e+00 2.583494e+01 1.775000e+01
      endloop
   endfacet
   facet normal -0.000000e+00 9.659259e-01 2.588188e-01
      outer loop
         vertex 3.000000e+00 2.250000e+01 1.650000e+01
         vertex 3.000000e+00 2.216506e+01 1.775000e+01
         vertex 5.000000e+00 2.216506e+01 1.775000e+01
      endloop
   endfacet
   facet normal 0.000000e+00 9.659259e-01 2.588188e-01
      outer loop
         vertex 3.000000e+00 2.250000e+01 1.650000e+01
         vertex 5.000000e+00 2.216506e+01 1.775000e+01
         vertex 5.000000e+00 2.250000e+01 1.650000e+01
      endloop
   endfacet
   facet normal -0.000000e+00 7.071068e-01 7.071068e-01
      outer loop
         vertex 3.000000e+00 2.216506e+01 1.775000e+01
         vertex 3.000000e+00 2.125000e+01 1.866506e+01
         vertex 5.000000e+00 2.125000e+01 1.866506e+01
      endloop
   endfacet
   facet normal 0.000000e+00 7.071068e-01 7.071068e-01
      outer loop
         vertex 3.000000e+00 2.216506e+01 1.775000e+01
         vertex 5.000000e+00 2.125000e+01 1.866506e+01
         vertex 5.000000e+00 2.216506e+01 1.775000e+01
      endloop
   endfacet
   facet normal -0.000000e+00 2.588188e-01 9.659259e-01
      outer loop
         vertex 3.000000e+00 2.125000e+01 1.866506e+01
         vertex 3.000000e+00 2.000000e+01 1.900000e+01
         vertex 5.000000e+00 2.000000e+01 1.900000e+01
      endloop
   endfacet
   facet normal 0.000000e+00 2.588188e-01 9.659259e-01
      outer loop
         vertex 3.000000e+00 2.125000e+01 1.866506e+01
         vertex 5.000000e+00 2.000000e+01 1.900000e+01
         vertex 5.000000e+00 2.125000e+01 1.866506e+01
      endloop
   endfacet
   facet normal 0.000000e+00 -2.588188e-01 9.659259e-01
      outer loop
         vertex 3.000000e+00 2.000000e+01 1.900000e+01
         vertex 3.000000e+00 1.875000e+01 1.866506e+01
         vertex 5.000000e+00 1.875000e+01 1.866506e+01
      endloop
   endfacet
   facet normal 0.000000e+00 -2.588188e-01 9.659259e-01
      outer loop
         vertex 3.000000e+00 2.000000e+01 1.900000e+01
         vertex 5.000000e+00 1.875000e+01 1.866506e+01
         vertex 5.000000e+00 2.000000e+01 1.900000e+01
      endloop
   endfacet
   facet normal 0.000000e+00 -7.071068e-01 7.071068e-01
      outer loop
         vertex 3.000000e+00 1.875000e+01 1.866506e+01
         vertex 3.000000e+00 1.783494e+01 1.775000e+01
         vertex 5.000000e+00 1.783494e+01 1.775000e+01
      endloop
   endfacet
   facet normal 0.000000e+00 -7.071068e-01 7.071068e-01
      outer loop
         vertex 3.000000e+00 1.875000e+01 1.866506e+01
         vertex 5.000000e+00 1.783494e+01 1.775000e+01
         vertex 5.000000e+00 1.875000e+01 1.866506e+01
      endloop
   endfacet
   facet normal 0.000000e+00 -9.659259e-01 2.588188e-01
      outer loop
         vertex 3.000000e+00 1.783494e+01 1.775000e+01
         vertex 3.000000e+00 1.750000e+01 1.650000e+01
         vertex 5.000000e+00 1.750000e+01 1.650000e+01
      endloop
   endfacet
   facet normal 0.000000e+00 -9.659259e-01 2.588188e-01
      outer loop
         vertex 3.000000e+00 1.783494e+01 1.775000e+01
         vertex 5.000000e+00 1.750000e+01 1.650000e+01
         vertex 5.000000e+00 1.783494e+01 1.775000e+01
      endloop
   endfacet
   facet normal -0.000000e+00 9.659259e-01 2.588188e-01
      outer loop
         vertex 3.000000e+00 1.450000e+01 1.650000e+01
         vertex 3.000000e+00 1.416506e+01 1.775000e+01
         vertex 5.000000e+00 1.416506e+01 1.775000e+01
      endloop
   endfacet
   facet normal 0.000000e+00 9.659259e-01 2.588188e-01
      outer loop
         vertex 3.000000e+00 1.450000e+01 1.650000e+01
         vertex 5.000000e+00 1.416506e+01 1.775000e+01
         vertex 5.000000e+00 1.450000e+01 1.650000e+01
      endloop
   endfacet
   facet normal -0.000000e+00 7.071068e-01 7.071068e-01
      outer loop
         vertex 3.000000e+00 1.416506e+01 1.775000e+01
         vertex 3.000000e+00 1.325000e+01 1.866506e+01
         vertex 5.000000e+00 1.325000e+01 1.866506e+01
      endloop
   endfacet
   facet normal 0.000000e+00 7.071068e-01 7.071068e-01
      outer loop
         vertex 3.000000e+00 1.416506e+01 1.775000e+01
         vertex 5.000000e+00 1.325000e+01 1.866506e+01
         vertex 5.000000e+00 1.416506e+01 1.775000e+01
      endloop
   endfacet
   facet normal -0.000000e+00 2.588188e-01 9.659259e-01
      outer loop
         vertex 3.000000e+00 1.325000e+01 1.866506e+01
         vertex 3.000000e+00 1.200000e+01 1.900000e+01
         vertex 5.000000e+00 1.200000e+01 1.900000e+01
      endloop
   endfacet
   facet normal 0.000000e+00 2.588188e-01 9.659259e-01
      outer loop
         vertex 3.000000e+00 1.325000e+01 1.866506e+01
         vertex 5.000000e+00 1.200000e+01 1.900000e+01
         vertex 5.000000e+00 1.325000e+01 1.866506e+01
      endloop
   endfacet
   facet normal 0.000000e+00 -2.588188e-01 9.659259e-01
      outer loop
         vertex 3.000000e+00 1.200000e+01 1.900000e+01
         vertex 3.000000e+00 1.075000e+01 1.866506e+01
         vertex 5.000000e+00 1.075000e+01 1.866506e+01
      endloop
   endfacet
   facet normal 0.000000e+00 -2.588188e-01 9.659259e-01
      outer loop
         vertex 3.000000e+00 1.200000e+01 1.900000e+01
         vertex 5.000000e+00 1.075000e+01 1.866506e+01
         vertex 5.000000e+00 1.200000e+01 1.900000e+01
      endloop
   endfacet
   facet normal 0.000000e+00 -7.071068e-01 7.071068e-01
      outer loop
         vertex 3.000000e+00 1.075000e+01 1.866506e+01
         vertex 3.000000e+00 9.834936e+00 1.775000e+01
         vertex 5.000000e+00 9.834936e+00 1.775000e+01
      endloop
   endfacet
   facet normal 0.000000e+00 -7.071068e-01 7.071068e-01
      outer loop
         vertex 3.000000e+00 1.075000e+01 1.866506e+01
         vertex 5.000000e+00 9.834936e+00 1.775000e+01
         vertex 5.000000e+00 1.075000e+01 1.866506e+01
      endloop
   endfacet
   facet normal 0.000000e+00 -9.659259e-01 2.588188e-01
      outer loop
         vertex 3.000000e+00 9.834936e+00 1.775000e+01
         vertex 3.000000e+00 9.500000e+00 1.650000e+01
         vertex 5.000000e+00 9.500000e+00 1.650000e+01
      endloop
   endfacet
   facet normal 0.000000e+00 -9.659259e-01 2.588188e-01
      outer loop
         vertex 3.000000e+00 9.834936e+00 1.775000e+01
         vertex 5.000000e+00 9.500000e+00 1.650000e+01
         vertex 5.000000e+00 9.834936e+00 1.775000e+01
      endloop
   endfacet
   facet normal -0.000000e+00 9.659258e-01 2.588191e-01
      outer loop
         vertex 3.000000e+00 6.500000e+00 1.650000e+01
         vertex 3.000000e+00 6.165063e+00 1.775000e+01
         vertex 5.000000e+00 6.165063e+00 1.775000e+01
      endloop
   endfacet
   facet normal 0.000000e+00 9.659258e-01 2.588191e-01
      outer loop
         vertex 3.000000e+00 6.500000e+00 1.650000e+01
         vertex 5.000000e+00 6.165063e+00 1.775000e+01
         vertex 5.000000e+00 6.500000e+00 1.650000e+01
      endloop
   endfacet
   facet normal -0.000000e+00 7.071070e-01 7.071066e-01
      outer loop
         vertex 3.000000e+00 6.165063e+00 1.775000e+01
         vertex 3.000000e+00 5.250000e+00 1.866506e+01
         vertex 5.000000e+00 5.250000e+00 1.866506e+01
      endloop
   endfacet
   facet normal 0.000000e+00 7.071070e-01 7.071066e-01
      outer loop
         vertex 3.000000e+00 6.165063e+00 1.775000e+01
         vertex 5.000000e+00 5.250000e+00 1.866506e+01
         vertex 5.000000e+00 6.165063e+00 1.775000e+01
      endloop
   endfacet
   facet normal -0.000000e+00 2.588188e-01 9.659259e-01
      outer loop
         vertex 3.000000e+00 5.250000e+00 1.866506e+01
         vertex 3.000000e+00 4.000000e+00 1.900000e+01
         vertex 5.000000e+00 4.000000e+00 1.900000e+01
      endloop
   endfacet
   facet normal 0.000000e+00 2.588188e-01 9.659259e-01
      outer loop
         vertex 3.000000e+00 5.250000e+00 1.866506e+01
         vertex 5.000000e+00 4.000000e+00 1.900000e+01
         vertex 5.000000e+00 5.250000e+00 1.866506e+01
      endloop
   endfacet
   facet normal 0.000000e+00 -2.588188e-01 9.659259e-01
      outer loop
         vertex 3.000000e+00 4.000000e+00 1.900000e+01
         vertex 3.000000e+00 2.750000e+00 1.866506e+01
         vertex 5.000000e+00 2.750000e+00 1.866506e+01
      endloop
   endfacet
   facet normal 0.000000e+00 -2.588188e-01 9.659259e-01
      outer loop
         vertex 3.000000e+00 4.000000e+00 1.900000e+01
         vertex 5.000000e+00 2.750000e+00 1.866506e+01
         vertex 5.000000e+00 4.000000e+00 1.900000e+01
      endloop
   endfacet
   facet normal 0.000000e+00 -7.071069e-01 7.071066e-01
      outer loop
         vertex 3.000000e+00 2.750000e+00 1.866506e+01
         vertex 3.000000e+00 1.834936e+00 1.775000e+01
         vertex 5.000000e+00 1.834936e+00 1.775000e+01
      endloop
   endfacet
   facet normal 0.000000e+00 -7.071069e-01 7.071066e-01
      outer loop
         vertex 3.000000e+00 2.750000e+00 1.866506e+01
         vertex 5.000000e+00 1.834936e+00 1.775000e+01
         vertex 5.000000e+00 2.750000e+00 1.866506e+01
      endloop
   endfacet
   facet normal 0.000000e+00 -9.659258e-01 2.588191e-01
      outer loop
         vertex 3.000000e+00 1.834936e+00 1.775000e+01
         vertex 3.000000e+00 1.500000e+00 1.650000e+01
         vertex 5.000000e+00 1.500000e+00 1.650000e+01
      endloop
   endfacet
   facet normal 0.000000e+00 -9.659258e-01 2.588191e-01
      outer loop
         vertex 3.000000e+00 1.834936e+00 1.775000e+01
         vertex 5.000000e+00 1.500000e+00 1.650000e+01
         vertex 5.000000e+00 1.834936e+00 1.775000e+01
      endloop
   endfacet
endsolid
